<svg width="205" height="79" viewBox="0 0 205 79" fill="none" xmlns="http://www.w3.org/2000/svg">
<path d="M47.4249 58.3162C33.5388 58.3162 26.0802 50.5294 26.0802 38.8441C26.0802 27.1588 33.3386 19.6826 46.9043 19.6826C56.4753 19.6826 62.6825 23.1601 66.0464 30.5261L90.5447 22.9497C83.6067 8.73892 68.9898 0 46.9043 0C17.7706 0 0 15.8944 0 39.0546C0 62.2147 18.191 78.0089 47.4249 78.0089C69.7206 78.0089 84.6479 69.27 90.6448 54.1172L66.0364 46.8514C62.9828 54.5381 57.8369 58.3263 47.4249 58.3263V58.3162Z" fill="#FE391F"/>
<path d="M117.776 28.3213V23.7915H95.5906V75.6939H117.566V52.1128C117.566 45.268 120.62 41.3796 127.978 41.3796C130.611 41.3796 134.395 42.3316 136.388 43.4841L147.01 26.4272C141.964 23.5811 138.07 22.5288 132.073 22.5288C126.396 22.5288 121.24 24.8438 117.766 28.3213H117.776Z" fill="#FE391F"/>
<path d="M182.341 22.5288C172.249 22.5288 162.148 23.9018 150.374 29.7945L162.148 42.2114C168.565 38.7339 174.452 37.2607 180.659 37.2607C186.866 37.2607 188.338 39.6859 188.548 42.8428H171.088C157.202 42.8428 149.533 48.7355 149.533 59.0579C149.533 70.6329 158.473 76.9566 175.303 76.9566C180.419 76.9566 185.334 76.0045 189.399 73.2586L204.236 28.0607C199.25 24.1623 193.063 22.5388 182.351 22.5388L182.341 22.5288ZM179.498 63.3772C176.234 63.3772 173.401 62.3249 173.401 59.6892C173.401 57.6849 175.293 56.4222 178.657 56.4222H188.438C187.697 59.7894 184.754 63.3672 179.498 63.3672V63.3772Z" fill="#FE391F"/>
</svg>
