<svg width="355" height="98" viewBox="0 0 355 98" fill="none" xmlns="http://www.w3.org/2000/svg">
<g clip-path="url(#clip0_16_554)">
<path d="M31.56 0L25.5 0.5L19 21.22H28.2C33.24 21.22 46.27 20.91 46.27 36.45C46.27 53.99 30.2 52 26.21 52H16.86V27.26L2 72.71L31.24 73.21C57.92 73.21 72.63 60.5 72.63 37.18C72.63 13.86 57.29 0 31.56 0Z" fill="#FE391F"/>
<path d="M100.04 21.43H78.19V73.22H100.04V21.43Z" fill="#FE391F"/>
<path d="M100.78 0H77.46V14.81H100.78V0Z" fill="#FE391F"/>
<path d="M160.23 14.6L149.52 22.37C145.32 20.9 140.49 20.16 135.23 20.16C119.26 20.16 107.08 26.88 107.08 40.85C107.08 45.89 108.66 49.99 111.39 53.14C108.34 56.08 106.87 59.55 106.87 63.54C106.87 67.53 108.24 70.68 111.28 73.2L105.4 76.77C105.19 77.82 104.87 79.4 104.87 80.45C104.87 90.43 118.21 97.26 137.43 97.26C156.65 97.26 168.73 90.12 168.73 78.77C168.73 70.89 164.32 66.59 148.67 65.01C125.88 62.8 124.3 63.12 124.3 60.39V60.07C127.87 60.91 131.86 61.33 136.17 61.33C152.87 61.33 163.9 55.55 163.9 41.48C163.9 38.33 163.27 35.6 162.22 33.18L169.47 28.35L160.23 14.59V14.6ZM125.99 80.15L126.94 78.78L132.51 79.41C146.38 80.67 146.9 80.88 146.9 82.25C146.9 83.93 144.8 85.19 138.29 85.19C132.93 85.19 125.89 83.93 125.89 80.46C125.89 80.35 125.89 80.25 126 80.14L125.99 80.15ZM135.76 47.38C131.77 47.38 129.04 44.65 129.04 40.87C129.04 37.51 131.56 35.09 135.45 35.09C139.65 35.09 142.28 37.51 142.28 40.87C142.28 44.65 139.44 47.38 135.77 47.38H135.76Z" fill="#FE391F"/>
<path d="M196.46 21.43H174.61V73.22H196.46V21.43Z" fill="#FE391F"/>
<path d="M197.2 0H173.88V14.81H197.2V0Z" fill="#FE391F"/>
<path d="M233.96 52V36.45H250.98V21.43H233.96V1.89L212.32 11.45V21.43H201.92V36.45H212.32V55.04C212.32 67.54 221.25 74.47 237.11 74.47C242.89 74.47 246.56 73.84 251.08 72.68V57.66C248.03 58.4 244.78 58.82 242.26 58.82C236.9 58.82 233.96 56.82 233.96 51.99V52Z" fill="#FE391F"/>
<path d="M289.1 20.17C279.02 20.17 268.93 21.54 257.17 27.42L268.93 39.81C275.34 36.34 281.22 34.87 287.42 34.87C293.62 34.87 295.09 37.29 295.3 40.44H277.86C263.99 40.44 256.33 46.32 256.33 56.62C256.33 68.17 265.26 74.48 282.07 74.48C288.69 74.48 294.99 72.9 299.51 67.86L301.51 73.22H319.26V41.29C319.26 27 309.39 20.18 289.11 20.18L289.1 20.17ZM286.26 60.93C283 60.93 280.17 59.88 280.17 57.25C280.17 55.25 282.06 53.99 285.42 53.99H295.19C294.45 57.35 291.51 60.92 286.26 60.92V60.93Z" fill="#FE391F"/>
<path d="M351.17 56.41C349.49 56.41 348.12 55.25 348.12 53.26V0H326.27V58.72C326.27 68.7 331.52 74.58 343.08 74.58C346.86 74.58 351.69 73.74 354.84 72.69V56.09C353.68 56.19 352.11 56.4 351.16 56.4L351.17 56.41Z" fill="#FE391F"/>
</g>
<defs>
<clipPath id="clip0_16_554">
<rect width="354.85" height="97.27" fill="white"/>
</clipPath>
</defs>
</svg>
