<svg width="995" height="332" viewBox="0 0 995 332" fill="none" xmlns="http://www.w3.org/2000/svg">
<g clip-path="url(#clip0_13_211)">
<path d="M44 204.278L108.666 2.72156H182.752L139.95 145.276H237.617L219.861 204.26H65.5L44 204.278Z" stroke="#FE391F" stroke-width="2" stroke-miterlimit="10"/>
<path d="M468.48 206.278L466.958 179.68H388.475L370.55 206.278H290L441.95 4.72156H519.926L549.632 206.278H468.48ZM423.78 127.336H463.633L460.213 73.268L423.78 127.336Z" stroke="#E6E6E6" stroke-width="2" stroke-miterlimit="10"/>
<path d="M593.019 205.736L654.291 4.17896H771.255C844.74 4.17896 877.208 41.1918 857.216 106.545C837.582 170.737 784.952 205.736 708.893 205.736H593H593.019ZM685.688 147.332H712.35C723.737 147.332 767.892 152.829 782.641 104.531C795.7 61.7304 758.272 62.6013 743.879 62.6013H711.505L685.688 147.332Z" stroke="#E6E6E6" stroke-width="2" stroke-miterlimit="10"/>
<path d="M868 206.278L929.78 4.72156H1106.74L1090.71 56.7755H987.876L981.225 78.457H1080.75L1064.56 131.092H965.085L957.982 154.225H1060.74L1044.71 206.278H868.038H868Z" stroke="#E6E6E6" stroke-width="2" stroke-miterlimit="10"/>
</g>
<path d="M62.558 147L1.5 331H825" stroke="#E6E6E6" stroke-width="2"/>
<defs>
<clipPath id="clip0_13_211">
<rect width="1115" height="207" fill="white" transform="translate(42)"/>
</clipPath>
</defs>
</svg>
