<svg width="247" height="74" viewBox="0 0 247 74" fill="none" xmlns="http://www.w3.org/2000/svg">
<g clip-path="url(#clip0_16_513)">
<path fill-rule="evenodd" clip-rule="evenodd" d="M17.3722 63.1652C9.3254 57.1749 4.10448 47.6005 4.10448 36.8178C4.10448 18.6671 18.8854 3.94091 37.1034 3.94091C52.1449 3.94091 68.5693 12.8964 72.5375 26.6142C68.0982 11.289 53.9187 0.0771484 37.1034 0.0771484C16.7409 0.0771484 0.226372 16.5306 0.226372 36.8178C0.226372 57.1051 16.7409 73.5585 37.1034 73.5585C57.466 73.5585 73.9805 57.1051 73.9805 36.8178V34.8809H71.9562C71.8963 34.8809 71.8059 34.8809 71.6856 34.8809C71.4452 34.8809 71.1046 34.871 70.6636 34.851C69.7917 34.821 68.5893 34.761 67.2364 34.6414C64.4706 34.4016 61.3139 33.9325 59.1695 33.0739C55.7123 31.6962 53.7583 29.8791 51.5337 27.7424L51.4032 27.6228C49.1687 25.4861 46.6634 23.08 42.3043 21.0433C38.0155 19.0365 33.2754 19.356 29.7981 20.0749C28.0344 20.4343 26.5112 20.9135 25.439 21.3029C24.8978 21.4926 24.4671 21.6723 24.1665 21.7921C22.4127 22.5309 20.7092 23.3994 18.9956 24.2082C18.9956 24.2082 22.3727 25.1267 24.0361 25.6459C24.0962 25.6659 24.1866 25.6957 24.3168 25.7357C24.5673 25.8156 24.928 25.9453 25.3588 26.1251C26.2408 26.4845 27.3932 27.0136 28.5355 27.7525C30.3393 28.9007 31.8323 30.3583 32.4438 32.1354C28.6256 32.6347 25.0382 34.3119 22.3526 35.8793C20.7292 36.8277 19.3764 37.7862 18.4244 38.495C17.9534 38.8546 17.5726 39.1541 17.3121 39.3637C17.0916 39.5435 13.6444 42.5684 13.6444 42.5684C13.6444 42.5684 18.0937 43.0378 20.2883 43.4771C21.7514 43.7666 23.7155 44.2458 25.7799 44.9547C27.8441 45.6735 29.9285 46.6119 31.662 47.82C33.3957 49.0281 34.6684 50.4158 35.2896 52.0133C37.1133 56.6658 35.3197 61.1883 31.7222 63.7342C28.1647 66.2503 22.7635 66.8494 17.3622 63.1553L17.3722 63.1652ZM29.9585 68.9161C31.4115 68.4467 32.7644 67.7578 33.9869 66.8992C38.8772 63.4348 41.4526 57.0851 38.9173 50.6155C37.9152 48.0696 36.0112 46.1327 33.8967 44.655C31.7724 43.1776 29.3371 42.0993 27.0724 41.3105C25.5893 40.7913 24.1465 40.392 22.8937 40.0925C23.3446 39.803 23.8157 39.5036 24.3267 39.2039C27.313 37.4569 31.081 35.8495 34.6885 35.8495C40.1297 35.8495 44.1783 37.5166 48.0462 39.2939C48.397 39.4535 48.7478 39.6232 49.1085 39.783C52.5658 41.4005 56.1933 43.0977 60.4121 43.0977C64.631 43.0977 67.6874 41.9496 69.8819 40.7514C67.9278 57.0451 54.0088 69.6846 37.1235 69.6846C34.6684 69.6846 32.2732 69.4153 29.9786 68.9161H29.9585ZM65.6733 38.3853C64.2201 38.8746 62.4564 39.234 60.4021 39.234C57.0952 39.234 54.2492 37.9161 50.6417 36.2387C50.3211 36.089 50.0005 35.9392 49.6698 35.7895C46.0521 34.1222 41.8735 32.355 36.432 32.0356C35.7005 28.4513 32.9748 25.9954 30.6299 24.4977C30.3695 24.328 30.1088 24.1682 29.8483 24.0185C30.0788 23.9684 30.3192 23.9087 30.5697 23.8587C33.7163 23.2098 37.4641 23.0499 40.6409 24.5476C44.4088 26.3148 46.5433 28.3514 48.7577 30.4681L48.838 30.5379C51.1128 32.7143 53.5278 35.0008 57.7265 36.678C60.0615 37.6066 63.0877 38.1058 65.6733 38.3853Z" fill="url(#paint0_linear_16_513)"/>
<path d="M97.8503 28.9012V7.19629H102.019L105.627 15.9122L109.234 7.19629H113.403V28.9012H110.136V12.2182L105.596 22.9708L101.057 12.2182V28.9012H97.8503Z" fill="#151522"/>
<path d="M118.353 28.9012L125.197 7.19629H129.617L136.461 28.9012H132.663L131.08 23.6597H123.584L122.031 28.9012H118.363H118.353ZM124.416 20.7744H130.268L127.342 11.13L124.416 20.7744Z" fill="#151522"/>
<path d="M141.812 28.9012V7.19629H145.58L153.457 22.3818L153.396 7.19629H156.573V28.9012H153.116L144.929 13.2166L144.989 28.9012H141.812Z" fill="#151522"/>
<path d="M169.099 28.9012V10.3612H162.345V7.19629H179.581V10.3612H172.827V28.9012H169.089H169.099Z" fill="#151522"/>
<path d="M183.7 28.9012L190.544 7.19629H194.963L201.807 28.9012H198.01L196.426 23.6597H188.931L187.377 28.9012H183.71H183.7ZM189.762 20.7744H195.615L192.688 11.13L189.762 20.7744Z" fill="#151522"/>
<path d="M98.2511 66.1015V44.3965H102.019L109.896 59.5819L109.835 44.3965H113.012V66.1015H109.555L101.368 50.4167L101.428 66.1015H98.2511Z" fill="#151522"/>
<path d="M120.778 66.1015V44.3965H135.028V47.5615H124.506V53.6115H131.32V56.7067H124.506V62.9365H135.148V66.1015H120.768H120.778Z" fill="#151522"/>
<path d="M147.324 66.1015V47.5615H140.57V44.3965H157.806V47.5615H151.052V66.1015H147.314H147.324Z" fill="#151522"/>
<path d="M164.72 66.1015L162.165 44.3965H165.462L166.834 58.7233L169.63 44.3965H172.426L175.222 58.5935L176.595 44.3965H179.772L177.246 66.1015H173.889L170.993 50.7861L168.067 66.1015H164.71H164.72Z" fill="#151522"/>
<path d="M192.749 66.4407C191.215 66.4407 189.802 66.0014 188.52 65.1426C187.237 64.2741 186.205 63.0061 185.443 61.3489C184.672 59.6816 184.291 57.6549 184.291 55.2587C184.291 52.8625 184.672 50.8259 185.443 49.1685C186.215 47.5011 187.237 46.2432 188.52 45.3745C189.802 44.5061 191.215 44.0767 192.749 44.0767C194.282 44.0767 195.685 44.5159 196.967 45.3745C198.24 46.2432 199.272 47.5112 200.044 49.1685C200.825 50.8358 201.206 52.8625 201.206 55.2587C201.206 57.6549 200.815 59.6914 200.044 61.3489C199.262 63.0162 198.24 64.2741 196.967 65.1426C195.695 66.0113 194.282 66.4407 192.749 66.4407ZM192.749 63.0959C193.62 63.0959 194.412 62.8066 195.134 62.2075C195.845 61.6185 196.416 60.7399 196.827 59.5718C197.238 58.4037 197.448 56.966 197.448 55.2488C197.448 53.5314 197.238 52.0937 196.827 50.9357C196.416 49.7774 195.845 48.8989 195.134 48.3C194.422 47.7009 193.62 47.4015 192.749 47.4015C191.877 47.4015 191.085 47.7009 190.364 48.3C189.652 48.8989 189.081 49.7774 188.67 50.9357C188.259 52.0937 188.049 53.5314 188.049 55.2488C188.049 56.966 188.259 58.4037 188.67 59.5718C189.081 60.7399 189.652 61.6185 190.364 62.2075C191.075 62.7965 191.877 63.0959 192.749 63.0959Z" fill="#151522"/>
<path d="M207.75 66.1015V44.3965H215.155C216.609 44.3965 217.881 44.6661 218.963 45.2151C220.056 45.7642 220.897 46.5231 221.519 47.5114C222.13 48.4899 222.441 49.638 222.441 50.9359C222.441 52.3637 222.07 53.5915 221.318 54.62C220.567 55.6582 219.555 56.407 218.272 56.8862L223.032 66.0914H219.013L214.685 57.4155H211.478V66.0914H207.74L207.75 66.1015ZM211.488 54.4503H214.845C216.007 54.4503 216.929 54.1307 217.631 53.5017C218.322 52.8728 218.673 52.0441 218.673 51.0059C218.673 49.9675 218.322 49.1089 217.631 48.48C216.939 47.8508 216.007 47.5314 214.845 47.5314H211.488V54.4402V54.4503Z" fill="#151522"/>
<path d="M229.185 66.1015V44.3965H232.923V54.1008L240.729 44.3965H244.989L236.21 54.9096L245.39 66.1015H240.688L232.911 56.1774V66.1015H229.175H229.185Z" fill="#151522"/>
</g>
<defs>
<linearGradient id="paint0_linear_16_513" x1="-0.435012" y1="37.4968" x2="74.6418" y2="36.1187" gradientUnits="userSpaceOnUse">
<stop stop-color="#29CCB9"/>
<stop offset="0.49" stop-color="#0091FF"/>
<stop offset="1" stop-color="#FF66B7"/>
</linearGradient>
<clipPath id="clip0_16_513">
<rect width="246.615" height="73.4813" fill="white" transform="translate(0.226372 0.0771484)"/>
</clipPath>
</defs>
</svg>
