<svg width="277" height="68" viewBox="0 0 277 68" fill="none" xmlns="http://www.w3.org/2000/svg">
<g clip-path="url(#clip0_16_486)">
<path d="M215.363 9.65173C216.122 4.0346 221.296 0.0956095 226.921 0.85113L268.063 6.38543C273.69 7.14237 277.636 12.3082 276.878 17.9268L271.336 59.0077C270.579 64.6248 265.403 68.5652 259.779 67.8083L218.635 62.2754C213.01 61.5184 209.062 56.3512 209.822 50.7341L215.363 9.65173ZM227.316 9.93109C227.17 10.0427 227.075 10.2057 227.049 10.3888L221.193 53.2433C221.168 53.425 221.216 53.6067 221.33 53.754C221.442 53.8999 221.603 53.9943 221.786 54.0186L228.907 54.9826C229.087 55.0041 229.27 54.9598 229.417 54.8496C229.565 54.7366 229.66 54.575 229.684 54.3919L233.624 25.5605L251.392 57.4042C251.628 57.8262 252.057 58.118 252.538 58.1838L259.775 59.1635C259.957 59.1879 260.141 59.1407 260.289 59.0291C260.436 58.9161 260.532 58.7545 260.557 58.5714L266.411 15.7168C266.436 15.5337 266.388 15.3521 266.276 15.2062C266.164 15.0589 266.003 14.9659 265.82 14.9416L258.701 13.9775C258.513 13.9546 258.336 13.999 258.188 14.1106C258.041 14.2221 257.946 14.3852 257.92 14.5683L253.981 43.3997L236.214 11.556C235.979 11.134 235.552 10.8408 235.071 10.7779L227.829 9.79664C227.642 9.77375 227.465 9.82095 227.316 9.93109Z" fill="#1E1E1E"/>
<path d="M108.076 34.3997L108.231 33.874C109.492 29.6087 113.943 26.4304 118.362 26.4304C122.779 26.4304 127.228 29.6087 128.491 33.874L128.646 34.3997H108.076ZM119.118 19.125H117.607C107.548 19.125 99.3648 27.298 99.3648 37.3415V38.8473C99.3648 48.8908 107.548 57.0624 117.607 57.0624H119.118C125.963 57.0624 131.062 54.7873 134.708 50.106C134.792 49.9963 134.828 49.8567 134.803 49.7213C134.78 49.5931 134.706 49.4834 134.596 49.415L128.32 45.6213C128.11 45.4888 127.833 45.5373 127.7 45.7267C125.145 49.3752 120.753 49.757 118.362 49.757C113.703 49.757 109.093 46.261 108.084 41.762L107.973 41.2634H129.102L129.096 41.2677H136.784C137.021 41.2677 137.226 41.0925 137.25 40.8688C137.323 40.2007 137.359 39.5197 137.359 38.8473V37.3415C137.359 27.298 129.177 19.125 119.118 19.125Z" fill="#1E1E1E"/>
<path d="M157.608 57.0624H159.126C167.665 57.0624 172.196 51.7911 172.686 51.1899C175.016 48.3206 175.651 45.2092 174.473 42.4282C173.457 40.022 171.249 38.4506 170.596 38.0274C167.715 36.1583 161.498 34.7678 161.234 34.7094C161.233 34.708 159.606 34.3433 158.604 34.1096C158.025 33.9743 157.474 33.856 156.956 33.7435C154.755 33.2648 153.328 32.92 152.434 32.0866C151.833 31.5267 151.549 30.84 151.614 30.0992C151.705 29.0221 152.648 28.1574 153.282 27.7399C154.809 26.7341 156.443 26.3637 159.487 26.4905C162.522 26.6159 165.508 27.8511 167.681 30.4397C167.849 30.6377 168.147 30.6662 168.363 30.5109L174.135 26.3167C174.253 26.2298 174.327 26.103 174.343 25.9563C174.359 25.8067 174.31 25.6642 174.208 25.5517C170.685 21.6467 165.197 19.125 160.228 19.125H158.711C150.022 19.125 145.346 24.7581 145.152 24.9975C142.823 27.8653 142.187 30.9768 143.362 33.7591C144.382 36.1682 146.59 37.7368 147.243 38.1599C150.102 40.0163 156.341 41.421 156.604 41.4794L156.767 41.515C157.204 41.6133 158.422 41.8883 159.232 42.0749C159.783 42.2031 160.305 42.3171 160.798 42.4268C163.032 42.9169 164.48 43.273 165.396 44.0951C165.924 44.5666 166.182 45.155 166.146 45.7947C166.089 46.7962 165.174 47.6923 164.53 48.1269C162.803 49.2922 161.276 49.7866 158.35 49.6968C155.343 49.6042 152.185 48.2351 150.102 45.6636C150.008 45.5468 149.866 45.4841 149.72 45.4841C149.626 45.4841 149.53 45.5098 149.445 45.5625L143.294 49.3478C143.168 49.4247 143.086 49.5473 143.062 49.6926C143.036 49.8436 143.078 49.9989 143.176 50.12C146.706 54.468 152.1 57.0624 157.608 57.0624Z" fill="#1E1E1E"/>
<path d="M203.663 47.613H198.929C195.788 47.613 193.233 45.0844 193.233 41.9746V29.6038C193.233 28.8061 193.888 28.1579 194.695 28.1579H203.663C204.015 28.1579 204.301 27.8758 204.301 27.5282V21.142C204.301 20.7958 204.015 20.5138 203.663 20.5138H193.233V11.3226C193.233 10.9764 192.948 10.6943 192.597 10.6943L185.261 11.71C184.91 11.71 184.625 11.9921 184.625 12.3383V20.5138H180.514C180.161 20.5138 179.876 20.7958 179.876 21.142V27.5553C179.876 27.9029 180.161 28.185 180.514 28.185H183.163C183.97 28.185 184.625 28.8331 184.625 29.6309V43.0914C184.625 49.7982 190.141 55.2557 196.922 55.2557H203.663C204.015 55.2557 204.301 54.9736 204.301 54.6289V48.2412C204.301 47.895 204.015 47.613 203.663 47.613Z" fill="#1E1E1E"/>
<path d="M24.1999 49.3067H24.0404C15.3835 49.3067 8.33828 42.2067 8.33828 33.4797C8.33828 24.754 15.3835 17.6555 24.0404 17.6555H24.1999C32.8597 17.6555 39.9035 24.754 39.9035 33.4797C39.9035 42.2067 32.8597 49.3067 24.1999 49.3067ZM48.0806 33.4797C48.0806 20.5832 37.6695 10.0923 24.8734 10.0923H23.367C10.5694 10.0923 0.158295 20.5832 0.158295 33.4797C0.158295 46.3775 10.5694 56.8699 23.367 56.8699H24.8734C26.1292 56.8699 27.4249 56.7606 28.7206 56.5447L28.7804 56.5332C29.6191 56.3908 30.4548 56.1995 31.2636 55.9635C32.1236 55.834 32.9807 55.7693 33.8265 55.7693C38.296 55.7693 42.4892 57.5633 45.6373 60.8694C45.7612 60.9989 45.9505 61.0133 46.0758 60.8997L51.6132 55.975C51.6772 55.9175 51.7171 55.834 51.7217 55.7463C51.7228 55.6988 51.7157 55.6053 51.6416 55.5276C49.1115 52.8142 46.0417 50.7957 42.5162 49.5254L41.9495 49.3225L42.3468 48.8665C46.0445 44.6007 48.0806 39.138 48.0806 33.4797Z" fill="#1E1E1E"/>
<path d="M59.2593 19.7271C56.4325 19.7271 54.1339 22.0237 54.1339 24.8463C54.1339 27.6675 56.4325 29.9641 59.2593 29.9641C62.0861 29.9641 64.3862 27.6675 64.3862 24.8463C64.3862 22.0237 62.0861 19.7271 59.2593 19.7271Z" fill="#1E1E1E"/>
<path d="M88.2092 19.7271C85.3814 19.7271 83.0816 22.0237 83.0816 24.8463C83.0816 27.6675 85.3814 29.9641 88.2092 29.9641C91.0342 29.9641 93.334 27.6675 93.334 24.8463C93.334 22.0237 91.0342 19.7271 88.2092 19.7271Z" fill="#1E1E1E"/>
<path d="M92.9216 55.8152C93.149 55.8152 93.334 55.6252 93.334 55.3902V34.6105C93.334 34.4973 93.2916 34.3885 93.2125 34.3073C93.1348 34.229 93.0303 34.1855 92.9216 34.1855H92.9188L85.6185 34.2493C85.3926 34.2508 85.2104 34.4422 85.2104 34.6743L85.1977 38.7919C85.1835 39.2169 85.1496 39.6158 85.0875 40.0407C85.055 40.2699 85.0338 40.4091 85.0056 40.5484C84.9095 41.027 84.7923 41.4665 84.6483 41.8856L84.6045 42.0002C83.5212 45.0069 81.1542 47.3913 78.0951 48.5821C75.7521 49.548 73.2806 49.7148 70.9531 49.0651C65.8405 47.867 62.2589 43.5362 62.2589 38.5381L62.2504 37.5475C62.2476 37.0094 62.2419 36.4162 62.2419 36.1551V34.6032C62.2419 34.3711 62.0569 34.1797 61.8295 34.1797H54.5462C54.3189 34.1797 54.1339 34.3711 54.1339 34.6032V40.4193L54.1451 40.6223C54.4205 49.841 61.5654 57.0625 70.4107 57.0625C73.9952 57.0625 77.3918 55.8718 80.2376 53.6178C81.0963 52.9391 82.1711 52.7636 83.1795 53.1363C84.202 53.512 84.9561 54.3808 85.1991 55.4598C85.2386 55.6368 85.3742 55.8152 85.586 55.8152H92.9216Z" fill="#1E1E1E"/>
</g>
<defs>
<clipPath id="clip0_16_486">
<rect width="276.813" height="67.4418" fill="white" transform="translate(0.158234 0.487793)"/>
</clipPath>
</defs>
</svg>
