<svg width="230" height="49" viewBox="0 0 230 49" fill="none" xmlns="http://www.w3.org/2000/svg">
<path d="M25.7422 46.563C26.0697 46.563 26.3912 46.4971 26.6889 46.3712C26.9867 46.2454 27.2606 46.0596 27.4928 45.8318L46.8565 26.3407C47.0888 26.107 47.2674 25.8373 47.3924 25.5316C47.5175 25.2319 47.583 24.9023 47.583 24.5786C47.583 24.255 47.5175 23.9253 47.3924 23.6257C47.2674 23.326 47.0828 23.0503 46.8565 22.8165L27.4928 3.32545C27.2606 3.0917 26.9926 2.9119 26.6889 2.78603C26.3912 2.66017 26.0637 2.59424 25.7422 2.59424V46.563Z" fill="#6668AC"/>
<path opacity="0.5" d="M23.0212 38.3638C22.39 38.3638 21.7529 38.214 21.2706 37.9083L1.90681 25.6815C0.942196 25.0701 0.942196 24.0812 1.90681 23.4698L21.2706 11.249C21.7529 10.9433 22.39 10.7935 23.0212 10.7935V38.3578V38.3638Z" fill="#6668AC"/>
<path opacity="0.5" d="M23.0212 30.1225C22.39 30.1225 21.7529 29.9727 21.2706 29.667L1.90681 17.4461C0.942196 16.8348 0.942196 15.8458 1.90681 15.2345L21.2706 3.01362C21.7529 2.70794 22.39 2.55811 23.0212 2.55811V30.1225Z" fill="#6668AC"/>
<path opacity="0.5" d="M23.0212 46.5991C22.39 46.5991 21.7529 46.4492 21.2706 46.1436L1.90681 33.9227C0.942196 33.3113 0.942196 32.3224 1.90681 31.7111L21.2706 19.4902C21.7529 19.1845 22.39 19.0347 23.0212 19.0347V46.5991Z" fill="#6668AC"/>
<path opacity="0.5" d="M55.1331 39.6283L66.5536 9.53467H74.6338L86.0543 39.6283H78.254L75.5626 32.8077H65.5831L62.9393 39.6283H55.139H55.1331ZM66.6013 27.2456H74.5385L70.549 16.7809L66.6013 27.2456Z" fill="#6668AC"/>
<path opacity="0.5" d="M88.6565 39.6283V9.53467H96.1352V33.8326H110.247V39.6283H88.6565Z" fill="#6668AC"/>
<path d="M149.618 39.6283L161.038 9.53467H169.118L180.539 39.6283H172.739L170.047 32.8077H160.068L157.424 39.6283H149.624H149.618ZM161.086 27.2456H169.023L165.034 16.7809L161.086 27.2456Z" fill="#6668AC"/>
<path d="M185.684 39.6283V28.5522L174.954 9.53467H182.754L189.441 22.0073L196.128 9.53467H203.922L193.204 28.5522V39.6283H185.684Z" fill="#6668AC"/>
<path d="M206.429 39.6283V9.53467H228.478V15.3304H213.901V21.6417H226.763V27.5273H213.901V33.8386H228.478V39.6283H206.429Z" fill="#6668AC"/>
<path d="M147.069 33.8325H132.957V9.53458H132.904V9.5166H125.425V39.6402H132.904V39.6283H147.069V33.8325Z" fill="#6668AC"/>
<path opacity="0.5" d="M106.442 15.3244H115.368V39.6283H122.728V9.53467H106.442V15.3244Z" fill="#6668AC"/>
</svg>
