<svg width="262" height="47" viewBox="0 0 262 47" fill="none" xmlns="http://www.w3.org/2000/svg">
<g clip-path="url(#clip0_16_529)">
<path d="M80.8568 46.1129V11.5474H71.0516V1.41064H101.658V11.5498H91.853V46.1153H80.8592L80.8568 46.1129Z" fill="#130C03"/>
<path d="M0.514282 23.9406C0.514282 10.0664 11.152 0.580078 24.5833 0.580078C32.6657 0.580078 39.9757 3.83979 44.6702 10.8369L34.9829 15.8753C32.3674 12.3179 28.9794 10.4216 24.7012 10.4216C17.153 10.4216 11.8643 16.2906 11.8643 23.9982C11.8643 31.7058 17.6295 37.4571 24.3451 37.4571C29.8721 37.4571 33.8544 34.1374 34.5666 29.7495V29.6895H25.1777V21.2713H46.8694V23.1676C46.8694 37.7523 38.1326 46.8834 24.2272 46.8834C11.0919 46.8834 0.514282 37.4571 0.514282 23.9406Z" fill="#130C03"/>
<path d="M54.4104 46.1129V1.41064H65.4043V46.1129H54.4104Z" fill="#130C03"/>
<path d="M198.56 46.1129V1.41064H209.554V46.1129H198.56Z" fill="#130C03"/>
<path d="M250.466 1.41064H261.224V46.1129H252.309L229.845 17.9517L230.023 46.1129H219.208V1.41064H228.361L250.825 29.3943L250.469 1.41064H250.466Z" fill="#130C03"/>
<path d="M128.295 36.7466C121.461 36.7466 115.696 31.4106 115.696 23.763C115.696 16.5306 121.223 10.7793 128.415 10.7793C131.957 10.7793 135.049 12.1163 137.299 14.3295C138.384 10.8729 140.073 7.63964 142.318 4.74958C138.386 2.13077 133.603 0.640137 128.473 0.640137C115.28 0.640137 104.344 10.4817 104.344 23.703C104.344 37.5772 115.337 46.8834 128.295 46.8834C133.468 46.8834 138.288 45.4384 142.241 42.87C140.022 39.9823 138.35 36.7298 137.279 33.2301C134.996 35.4336 131.858 36.7466 128.295 36.7466Z" fill="#130C03"/>
<path d="M167.703 0.640137C159.424 0.640137 152.034 4.51675 147.677 10.6713C145.092 14.3247 143.574 18.7798 143.574 23.703C143.574 28.6261 145.087 33.3645 147.652 37.0131C152 43.1988 159.375 46.8834 167.525 46.8834C180.778 46.8834 191.715 37.3971 191.715 23.8206C191.715 10.2441 180.839 0.640137 167.703 0.640137ZM167.525 36.7466C160.692 36.7466 154.926 31.4106 154.926 23.763C154.926 16.5306 160.453 10.7793 167.645 10.7793C174.838 10.7793 180.365 16.4706 180.365 23.823C180.365 31.1753 174.838 36.7466 167.528 36.7466H167.525Z" fill="#130C03"/>
</g>
<defs>
<clipPath id="clip0_16_529">
<rect width="260.708" height="46.3033" fill="white" transform="translate(0.514282 0.580078)"/>
</clipPath>
</defs>
</svg>
