<svg width="489" height="75" viewBox="0 0 489 75" fill="none" xmlns="http://www.w3.org/2000/svg">
<g clip-path="url(#clip0_16_564)">
<path d="M75.34 24.68C75.34 3.36 58.74 0 41.1 0L24.5 -0.5L0 73.21H25.34V50.31H36.89L49.6 73.21H78.59L62.2 46.95C70.08 43.48 75.33 36.87 75.33 24.68H75.34ZM39.94 31.3H25.34V18.9H39.94C42.99 18.9 49.18 18.59 49.18 24.89C49.18 31.61 42.88 31.3 39.94 31.3Z" fill="#FF3920"/>
<path d="M111.47 20.17C92.35 20.17 78.91 31.62 78.91 47.59C78.91 63.56 92.67 74.48 113.89 74.48C121.87 74.48 130.7 73.01 139.63 70.17L131.75 55.57C127.13 57.36 118.94 58.83 113.89 58.83C107.59 58.83 103.6 57.25 102.02 54.31H142.57C142.89 51.47 142.99 50 142.99 49.06C142.99 30.47 130.38 20.17 111.48 20.17H111.47ZM102.12 40.02C103.38 36.87 107.37 34.45 111.89 34.45C115.78 34.45 119.56 36.34 120.29 40.02H102.12Z" fill="#FF3920"/>
<path d="M179.64 20.17C169.56 20.17 159.47 21.54 147.71 27.42L159.47 39.81C165.88 36.34 171.76 34.87 177.96 34.87C184.16 34.87 185.63 37.29 185.84 40.44H168.4C154.53 40.44 146.87 46.32 146.87 56.62C146.87 68.17 155.8 74.48 172.61 74.48C179.23 74.48 185.53 72.9 190.05 67.86L192.05 73.22H209.8V41.29C209.8 27 199.93 20.18 179.65 20.18L179.64 20.17ZM176.8 60.93C173.54 60.93 170.71 59.88 170.71 57.25C170.71 55.25 172.6 53.99 175.96 53.99H185.73C184.99 57.35 182.05 60.92 176.8 60.92V60.93Z" fill="#FF3920"/>
<path d="M238.66 53.26V0H216.81V58.72C216.81 68.7 222.06 74.58 233.62 74.58C237.4 74.58 242.23 73.74 245.38 72.69V56.09C244.22 56.19 242.65 56.4 241.7 56.4C240.02 56.4 238.65 55.24 238.65 53.25L238.66 53.26Z" fill="#FF3920"/>
<path d="M273.22 21.43H251.37V73.22H273.22V21.43Z" fill="#FF3920"/>
<path d="M273.96 0H250.64V14.81H273.96V0Z" fill="#FF3920"/>
<path d="M310.72 52V36.45H327.74V21.43H310.72V1.89L289.08 11.45V21.43H278.68V36.45H289.08V55.04C289.08 67.54 298.01 74.47 313.87 74.47C319.65 74.47 323.32 73.84 327.84 72.68V57.66C324.79 58.39 321.54 58.82 319.02 58.82C313.66 58.82 310.72 56.82 310.72 51.99V52Z" fill="#FF3920"/>
<path d="M357.98 0H334.66V14.81H357.98V0Z" fill="#FF3920"/>
<path d="M357.25 21.43H335.4V73.22H357.25V21.43Z" fill="#FF3920"/>
<path d="M395.69 20.17C376.57 20.17 363.13 31.62 363.13 47.59C363.13 63.56 376.89 74.48 398.11 74.48C406.09 74.48 414.92 73.01 423.85 70.17L415.97 55.57C411.35 57.36 403.16 58.83 398.11 58.83C391.81 58.83 387.82 57.25 386.24 54.31H426.79C427.11 51.47 427.21 50 427.21 49.06C427.21 30.47 414.6 20.17 395.7 20.17H395.69ZM386.34 40.02C387.6 36.87 391.59 34.45 396.11 34.45C400 34.45 403.78 36.34 404.51 40.02H386.34Z" fill="#FF3920"/>
<path d="M452.93 36.03C452.93 34.56 455.66 34.35 458.29 34.35C464.8 34.35 469.63 35.51 476.15 37.29L486.23 25.42C476.78 21.74 468.79 20.17 459.76 20.17C443.27 20.17 432.55 27.31 432.55 39.39C432.55 63.34 466.9 51.36 466.9 57.56C466.9 59.66 465.95 60.08 461.44 60.08C454.3 60.08 447.57 58.4 441.17 54.72L428.77 65.54C439.27 72.16 447.68 74.47 461.33 74.47C478.24 74.47 488.43 67.22 488.43 55.25C488.75 28.99 452.93 41.8 452.93 36.03Z" fill="#FF3920"/>
</g>
<defs>
<clipPath id="clip0_16_564">
<rect width="488.44" height="74.58" fill="white"/>
</clipPath>
</defs>
</svg>
