<svg width="147" height="131" viewBox="0 0 147 131" fill="none" xmlns="http://www.w3.org/2000/svg">
<path d="M63.0706 68.8537C63.8954 66.4174 66.1815 64.7778 68.7537 64.7778H100.875C104.982 64.7778 107.875 68.8116 106.558 72.7019L88.4561 126.17C87.6312 128.606 85.3452 130.246 82.773 130.246H50.6516C46.5443 130.246 43.6513 126.212 44.9684 122.321L63.0706 68.8537Z" fill="#FE391F" fill-opacity="0.8"/>
<path d="M34.0292 7.05589C35.3988 2.98652 39.2132 0.245605 43.5069 0.245605L98.1141 0.245605C104.952 0.245605 109.773 6.95474 107.592 13.4353L78.44 100.054C77.0704 104.124 73.256 106.864 68.9623 106.864H14.3551C7.51738 106.864 2.69645 100.155 4.8775 93.6748L34.0292 7.05589Z" fill="#86795B"/>
<path d="M34.5031 7.21537C35.8042 3.34947 39.4279 0.745605 43.5069 0.745605H98.1141C104.61 0.745605 109.19 7.11929 107.118 13.2758L77.9661 99.8947C76.665 103.761 73.0413 106.364 68.9623 106.364H14.3551C7.85927 106.364 3.27938 99.9908 5.35138 93.8343L34.5031 7.21537Z" stroke="#86795B" stroke-opacity="0.6"/>
<path d="M121.425 30.4265C122.274 28.0321 124.539 26.4321 127.08 26.4321L137.944 26.4322C142.088 26.4322 144.984 30.5326 143.599 34.4379L134.255 60.7832C133.406 63.1775 131.14 64.7775 128.6 64.7775L117.736 64.7775C113.592 64.7774 110.696 60.677 112.081 56.7718L121.425 30.4265Z" fill="#E2E2E2"/>
<path d="M121.896 30.5936C122.675 28.3988 124.751 26.9321 127.08 26.9321L137.944 26.9322C141.743 26.9322 144.398 30.6909 143.128 34.2707L133.784 60.6161C133.005 62.8109 130.929 64.2775 128.6 64.2775L117.736 64.2775C113.937 64.2774 111.282 60.5187 112.552 56.9389L121.896 30.5936Z" stroke="#86795B" stroke-opacity="0.6"/>
</svg>
