<svg width="266" height="218" viewBox="0 0 266 218" fill="none" xmlns="http://www.w3.org/2000/svg">
<path d="M68.8467 6.77969C70.2256 2.72601 74.0322 0 78.314 0L255.036 0C261.887 0 266.709 6.73393 264.503 13.2203L197.153 211.22C195.774 215.274 191.968 218 187.686 218H10.9642C4.11283 218 -0.709452 211.266 1.49689 204.78L68.8467 6.77969Z" fill="#86795B"/>
<path d="M69.3201 6.94071C70.63 3.0897 74.2463 0.5 78.314 0.5H255.036C261.545 0.5 266.126 6.89723 264.03 13.0593L196.68 211.059C195.37 214.91 191.754 217.5 187.686 217.5H10.9642C4.4554 217.5 -0.12577 211.103 1.97026 204.941L69.3201 6.94071Z" stroke="#86795B" stroke-opacity="0.6"/>
</svg>
