<svg width="157" height="140" viewBox="0 0 157 140" fill="none" xmlns="http://www.w3.org/2000/svg">
<g id="Group 53">
<g id="Group 49">
<path id="Rectangle 7" d="M67.6148 73.7897C68.4427 71.3584 70.7262 69.7236 73.2946 69.7236H108.693C112.805 69.7236 115.698 73.7654 114.373 77.6576L94.6687 135.527C93.8409 137.958 91.5573 139.593 88.989 139.593H53.5902C49.4786 139.593 46.5852 135.551 47.9104 131.659L67.6148 73.7897Z" fill="#86795B"/>
<path id="Rectangle 5" d="M36.5077 7.64646C37.8822 3.58548 41.6925 0.852539 45.9798 0.852539L106.127 0.852539C112.972 0.852539 117.794 7.57493 115.599 14.0586L83.8543 107.846C82.4798 111.907 78.6695 114.64 74.3822 114.64H14.235C7.38998 114.64 2.56831 107.917 4.76289 101.434L36.5077 7.64646Z" fill="#EA492F"/>
<g id="Rectangle 8">
<path d="M130.251 32.7844C131.104 30.3954 133.366 28.8003 135.903 28.8003L148.489 28.8004C152.638 28.8004 155.534 32.9092 154.141 36.8162L143.823 65.7396C142.971 68.1287 140.709 69.7238 138.172 69.7238L125.585 69.7237C121.437 69.7237 118.54 65.6149 119.934 61.7079L130.251 32.7844Z" fill="#E2E2E2"/>
<path d="M130.722 32.9524C131.504 30.7624 133.578 29.3003 135.903 29.3003L148.489 29.3004C152.292 29.3004 154.947 33.0668 153.67 36.6482L143.352 65.5717C142.571 67.7616 140.497 69.2238 138.172 69.2238L125.585 69.2237C121.783 69.2237 119.127 65.4573 120.405 61.8758L130.722 32.9524Z" stroke="#86795B" stroke-opacity="0.6"/>
</g>
</g>
</g>
</svg>
