<svg width="695" height="100" viewBox="0 0 695 100" fill="none" xmlns="http://www.w3.org/2000/svg">
<g clip-path="url(#clip0_16_576)">
<path d="M25.7591 55.3151C25.7591 59.0837 20.4362 59.9704 15.5569 59.9704C13.0855 59.9704 9.25174 60.0549 6.33681 59.1154L0 78.2751C4.91103 79.278 10.4135 79.8163 16.5496 79.8163C42.953 79.8163 53.5988 68.6161 53.5988 52.2115C53.5988 32.8829 32.3283 28.1326 17.4262 25.863L10.0333 48.0312C24.1221 50.1742 25.7486 52.4966 25.7486 55.3151H25.7591Z" fill="#FF3920"/>
<path d="M31.9692 26.4858L50.272 11.9603C44.157 6.22823 34.6095 1.75235 26.4034 -0.527817L19.5385 19.5292C23.499 21.2076 29.2655 23.4878 31.9798 26.4858H31.9692Z" fill="#FF3920"/>
<path d="M82.7798 22.7066H59.7033V77.3778H82.7798V22.7066Z" fill="#FF3920"/>
<path d="M83.5508 0.0950089H58.9218V15.7289H83.5508V0.0950089Z" fill="#FF3920"/>
<path d="M133.802 21.3765C125.596 21.3765 119.153 23.5934 114.612 28.1431V22.7066H91.4296V77.3778H114.612V52.7605C114.612 43.9987 118.604 39.0161 126.483 39.0161C132.915 39.0161 136.241 42.4575 136.241 49.2135V77.3778H159.318V40.1246C159.318 28.9243 149.221 21.3871 133.802 21.3871V21.3765Z" fill="#FF3920"/>
<path d="M200.919 39.0161C207.689 39.0161 211.681 42.3414 213.561 45.8883L234.747 38.5728C228.315 27.1509 218.324 21.3871 200.908 21.3871C178.719 21.3871 164.968 32.9146 164.968 50.2164C164.968 67.5182 178.719 78.7185 201.025 78.7185C217.11 78.7185 229.097 72.6169 234.082 61.4167L213.339 54.1011C212.008 58.4292 207.129 61.0894 200.803 61.0894C193.484 61.0894 187.939 57.0991 187.939 50.227C187.939 43.3548 193.262 39.0267 200.919 39.0267V39.0161Z" fill="#FF3920"/>
<path d="M272.578 21.3765C252.385 21.3765 238.19 33.4635 238.19 50.322C238.19 67.1804 252.722 78.7079 275.134 78.7079C283.562 78.7079 292.887 77.1561 302.319 74.1581L293.996 58.7459C289.117 60.6355 280.467 62.1873 275.134 62.1873C268.48 62.1873 264.266 60.5194 262.597 57.4158H305.424C305.762 54.4178 305.867 52.866 305.867 51.8737C305.867 32.2495 292.549 21.3765 272.588 21.3765H272.578ZM262.703 42.3308C264.034 39.0056 268.248 36.451 273.021 36.451C277.13 36.451 281.122 38.4461 281.893 42.3308H262.703Z" fill="#FF3920"/>
<path d="M376.734 0.0950089L343.011 77.3778H372.858L376.523 67.1804H405.587L409.136 77.3778H439.204L405.587 0.0950089H376.744H376.734ZM383.725 47.1128L391.161 26.3802L398.48 47.1128H383.725Z" fill="#FF3920"/>
<path d="M463.601 56.3074V0.0950089H440.524V62.0817C440.524 72.6169 446.069 78.824 458.278 78.824C462.27 78.824 467.371 77.9373 470.698 76.8289V59.3054C469.473 59.411 467.815 59.6326 466.812 59.6326C465.037 59.6326 463.59 58.4081 463.59 56.3074H463.601Z" fill="#FF3920"/>
<path d="M515.288 21.3765C509.627 21.3765 504.526 22.9283 500.09 25.9263V22.7066H476.908V99.9894H500.09V72.9336C503.533 76.1533 510.631 78.6973 516.397 78.6973C535.925 78.6973 548.461 67.2754 548.461 50.3114C548.461 33.3474 535.703 21.366 515.288 21.366V21.3765ZM512.732 61.4061C505.075 61.4061 500.09 56.8563 500.09 50.2058C500.09 43.5554 505.086 39.0056 512.732 39.0056C520.379 39.0056 525.374 43.6609 525.374 50.2058C525.374 56.7508 520.273 61.4061 512.732 61.4061Z" fill="#FF3920"/>
<path d="M597.265 21.3765C589.059 21.3765 582.617 23.5934 578.075 28.1431V0.0950089H554.893V77.3778H578.075V52.7605C578.075 43.9987 582.068 39.0162 589.946 39.0162C596.378 39.0162 599.705 42.4575 599.705 49.2136V77.3778H622.781V40.1246C622.781 28.9243 612.685 21.3871 597.265 21.3871V21.3765Z" fill="#FF3920"/>
<path d="M663.158 21.3765C652.512 21.3765 641.855 22.8228 629.435 29.0299L641.855 42.1091C648.625 38.4461 654.835 36.8943 661.383 36.8943C667.931 36.8943 669.484 39.449 669.706 42.7742H651.287C636.638 42.7742 628.548 48.9813 628.548 59.8543C628.548 72.0469 637.979 78.7079 655.733 78.7079C662.725 78.7079 669.378 77.04 674.152 71.7196L676.264 77.3778H695.011V43.6715C695.011 28.5865 684.587 21.3871 663.168 21.3871L663.158 21.3765ZM660.158 64.4041C656.715 64.4041 653.726 63.2957 653.726 60.5194C653.726 58.4081 655.722 57.078 659.271 57.078H669.589C668.808 60.6249 665.703 64.3935 660.158 64.3935V64.4041Z" fill="#FF3920"/>
</g>
<defs>
<clipPath id="clip0_16_576">
<rect width="695" height="100" fill="white"/>
</clipPath>
</defs>
</svg>
