<svg width="838" height="75" viewBox="0 0 838 75" fill="none" xmlns="http://www.w3.org/2000/svg">
<path d="M49.9 72H2.83122e-07V2.3H44.9C60.5 2.3 70.3 9.2 70.3 20.1C70.3 25.6 68.4 30.4 64.8 33.7C71.3 37.3 74.3 42.7 74.3 50.4C74.3 63.4 64.6 72 49.9 72ZM25 19.3V28.7H40C43.4 28.7 45.1 26.8 45.1 23.6C45.1 21 43.4 19.3 40.3 19.3H25ZM25 44.3V54.6H43.7C47.4 54.6 49.3 52.6 49.3 48.9C49.3 45.8 47.3 44.3 43.3 44.3H25ZM146.985 72H89.6852V2.3H114.385V51.6H146.985V72ZM243.402 72H216.302L213.102 62.8H186.902L183.602 72H156.702L187.102 2.3H213.102L243.402 72ZM200.102 26L193.402 44.7H206.702L200.102 26ZM295.163 72H256.463V2.3H295.463C319.963 2.3 334.563 15.1 334.563 37.7C334.563 59.9 320.563 72 295.163 72ZM281.463 22.5V51.8H290.363C294.163 51.8 309.463 53.7 309.463 37C309.463 22.2 297.063 22.5 292.263 22.5H281.463ZM408.763 72H349.763V2.3H408.763V20.3H374.463V27.8H407.663V46H374.463V54H408.763V72ZM527.08 48.5H511.78V32.1H552.18V72H534.38L533.28 68.1C528.08 72.4 520.28 74.2 510.48 74.2C482.48 74.2 466.18 58.3 466.18 38.1C466.18 15.4 484.08 0.0999959 510.98 0.0999959C529.48 0.0999959 545.38 7.59999 552.28 21.9L528.98 29.1C525.78 22.2 520.78 18.8 510.78 18.8C496.58 18.8 490.98 26.2 490.98 37.3C490.98 49 498.18 55.5 512.28 55.5C523.58 55.5 526.48 51.9 527.08 48.5ZM650.921 72H623.821L620.621 62.8H594.421L591.121 72H564.221L594.621 2.3H620.621L650.921 72ZM607.621 26L600.921 44.7H614.221L607.621 26ZM712.082 37.4L727.682 2.3H760.582V72H735.782V36.3L723.182 65.4H701.582L688.782 36.3V72H664.082V2.3H696.782L712.082 37.4ZM837.377 72H778.377V2.3H837.377V20.3H803.077V27.8H836.277V46H803.077V54H837.377V72Z" fill="#FE391F"/>
</svg>
