<svg width="821" height="75" viewBox="0 0 821 75" fill="none" xmlns="http://www.w3.org/2000/svg">
<path d="M45.2 74.2C17.4 74.2 0.1 59.3 0.1 37.2C0.1 15.2 17 0.0999959 44.7 0.0999959C65.7 0.0999959 79.6 8.4 86.2 21.9L62.9 29.1C59.7 22.1 53.8 18.8 44.7 18.8C31.8 18.8 24.9 25.9 24.9 37C24.9 48.1 32 55.5 45.2 55.5C55.1 55.5 60 51.9 62.9 44.6L86.3 51.5C80.6 65.9 66.4 74.2 45.2 74.2ZM141.786 74.2C114.186 74.2 98.1859 59.6 98.1859 37.2C98.1859 14.8 114.186 0.0999959 141.786 0.0999959C169.686 0.0999959 185.286 14.5 185.286 37.2C185.286 59.6 169.286 74.2 141.786 74.2ZM141.786 53.8C154.486 53.8 160.386 47.3 160.386 37.2C160.386 27 154.486 20.5 141.786 20.5C129.086 20.5 122.886 26.9 122.886 37.2C122.886 47.5 129.086 53.8 141.786 53.8ZM258.13 72H200.83V2.3H225.53V51.6H258.13V72ZM329.946 72H272.646V2.3H297.346V51.6H329.946V72ZM403.463 72H344.463V2.3H403.463V20.3H369.163V27.8H402.363V46H369.163V54H403.463V72ZM463.755 74.2C435.955 74.2 418.655 59.3 418.655 37.2C418.655 15.2 435.555 0.0999959 463.255 0.0999959C484.255 0.0999959 498.155 8.4 504.755 21.9L481.455 29.1C478.255 22.1 472.355 18.8 463.255 18.8C450.355 18.8 443.455 25.9 443.455 37C443.455 48.1 450.555 55.5 463.755 55.5C473.655 55.5 478.555 51.9 481.455 44.6L504.855 51.5C499.155 65.9 484.955 74.2 463.755 74.2ZM564.836 72H539.636V22.7H516.336V2.3H587.836V22.7H564.836V72ZM627.197 72H602.197V2.3H627.197V72ZM685.907 74.2C658.307 74.2 642.307 59.6 642.307 37.2C642.307 14.8 658.307 0.0999959 685.907 0.0999959C713.807 0.0999959 729.407 14.5 729.407 37.2C729.407 59.6 713.407 74.2 685.907 74.2ZM685.907 53.8C698.607 53.8 704.507 47.3 704.507 37.2C704.507 27 698.607 20.5 685.907 20.5C673.207 20.5 667.007 26.9 667.007 37.2C667.007 47.5 673.207 53.8 685.907 53.8ZM795.851 35.6V2.3H820.851V72H798.251L769.651 38.2V72H744.951V2.3H767.451L795.851 35.6Z" fill="#FE391F"/>
</svg>
