<svg width="254" height="97" viewBox="0 0 254 97" fill="none" xmlns="http://www.w3.org/2000/svg">
<path d="M19.9493 20.9554C19.9493 17.4778 21.1107 16.2151 23.2131 16.2151C24.3644 16.2151 25.9463 16.636 27.8384 17.2674L34.8866 2.42524C31.2524 1.19257 28.319 0.5111 25.1153 0.210449L0.687012 74.6416H19.9493V37.8018H31.9332V22.7492H19.9493V20.9554Z" fill="#FE391F"/>
<path d="M66.4331 53.3856V37.8018H83.4728V22.7492H66.4331V3.16684L44.768 12.7476V22.7492H34.356V37.8018H44.768V56.4322C44.768 68.9593 53.7083 75.9043 69.5867 75.9043C75.3734 75.9043 79.0477 75.2729 83.5729 74.1104V59.0578C80.5194 59.7994 77.2656 60.2204 74.7427 60.2204C69.3765 60.2204 66.4331 58.216 66.4331 53.3755V53.3856Z" fill="#FE391F"/>
<path d="M113.017 22.7492H91.1417V74.6516H113.017V22.7492Z" fill="#FE391F"/>
<path d="M113.748 1.27275H90.4008V16.1149H113.748V1.27275Z" fill="#FE391F"/>
<path d="M161.383 21.4865C153.604 21.4865 147.497 23.5911 143.192 27.9104V22.7492H121.216V74.6516H143.192V51.281C143.192 42.963 146.976 38.2328 154.445 38.2328C160.542 38.2328 163.696 41.4998 163.696 47.9137V74.6516H185.571V39.285C185.571 28.652 176 21.4965 161.383 21.4965V21.4865Z" fill="#FE391F"/>
<path d="M233.737 66.4338C210.92 64.219 209.338 64.5397 209.338 61.8038V61.4831C212.912 62.3249 216.907 62.7458 221.222 62.7458C237.941 62.7458 248.984 56.9533 248.984 42.8528C248.984 39.6959 248.353 36.96 247.302 34.5348L254.561 29.6943L245.31 15.9044L234.588 23.6913C230.383 22.2181 225.547 21.4765 220.281 21.4765C204.293 21.4765 192.098 28.2111 192.098 42.2114C192.098 47.2623 193.68 51.3712 196.413 54.528C193.36 57.4744 191.888 60.952 191.888 64.9506C191.888 68.9493 193.26 72.1061 196.303 74.6316L190.416 78.2093C190.206 79.2616 189.886 80.845 189.886 81.8973C189.886 91.8989 203.241 98.7438 222.484 98.7438C241.726 98.7438 253.82 91.5883 253.82 80.2137C253.82 72.3166 249.405 68.0072 233.737 66.4238V66.4338ZM220.481 36.4289C224.686 36.4289 227.319 38.8541 227.319 42.2214C227.319 46.0096 224.476 48.7455 220.802 48.7455C216.807 48.7455 214.074 46.0096 214.074 42.2214C214.074 38.8541 216.597 36.4289 220.491 36.4289H220.481ZM223.325 86.6376C217.958 86.6376 210.91 85.3748 210.91 81.8973C210.91 81.7871 210.91 81.6868 211.02 81.5766L211.971 80.2036L217.548 80.835C231.434 82.0977 231.955 82.3082 231.955 83.6812C231.955 85.3648 229.852 86.6275 223.335 86.6275L223.325 86.6376Z" fill="#FE391F"/>
</svg>
