<svg width="879" height="260" viewBox="0 0 879 260" fill="none" xmlns="http://www.w3.org/2000/svg">
<path d="M42.6 100H3.9V30.3H42.9C67.4 30.3 82 43.1 82 65.7C82 87.9 68 100 42.6 100ZM28.9 50.5V79.8H37.8C41.6 79.8 56.9 81.7 56.9 65C56.9 50.2 44.5 50.5 39.7 50.5H28.9ZM134.201 102.2C108.901 102.2 96.5008 93.1 96.5008 74.8V30.3H121.201V69C121.201 74.7 122.601 80.5 134.201 80.5C145.601 80.5 146.801 74.9 146.801 69.3V30.3H171.901V74.3C171.901 92.9 159.301 102.2 134.201 102.2ZM239.937 63.6V30.3H264.937V100H242.337L213.737 66.2V100H189.037V30.3H211.537L239.937 63.6ZM341.63 100H282.63V30.3H341.63V48.3H307.33V55.8H340.53V74H307.33V82H341.63V100Z" fill="#FE391F"/>
<path d="M240.8 230H213.7L210.5 220.8H184.3L181 230H154.1L184.5 160.3H210.5L240.8 230ZM197.5 184L190.8 202.7H204.1L197.5 184ZM287.345 232.2C262.045 232.2 249.645 223.1 249.645 204.8V160.3H274.345V199C274.345 204.7 275.745 210.5 287.345 210.5C298.745 210.5 299.945 204.9 299.945 199.3V160.3H325.045V204.3C325.045 222.9 312.445 232.2 287.345 232.2ZM387.281 230H362.081V180.7H338.781V160.3H410.281V180.7H387.281V230ZM465.54 232.2C437.94 232.2 421.94 217.6 421.94 195.2C421.94 172.8 437.94 158.1 465.54 158.1C493.44 158.1 509.04 172.5 509.04 195.2C509.04 217.6 493.04 232.2 465.54 232.2ZM465.54 211.8C478.24 211.8 484.14 205.3 484.14 195.2C484.14 185 478.24 178.5 465.54 178.5C452.84 178.5 446.64 184.9 446.64 195.2C446.64 205.5 452.84 211.8 465.54 211.8ZM572.684 195.4L588.284 160.3H621.184V230H596.384V194.3L583.784 223.4H562.184L549.384 194.3V230H524.684V160.3H557.384L572.684 195.4ZM720.878 230H693.778L690.578 220.8H664.378L661.078 230H634.178L664.578 160.3H690.578L720.878 230ZM677.578 184L670.878 202.7H684.178L677.578 184ZM769.176 230H743.976V180.7H720.676V160.3H792.176V180.7H769.176V230ZM878.573 230H851.473L848.273 220.8H822.073L818.773 230H791.873L822.273 160.3H848.273L878.573 230ZM835.273 184L828.573 202.7H841.873L835.273 184Z" fill="#FE391F"/>
</svg>
