<svg width="656" height="260" viewBox="0 0 656 260" fill="none" xmlns="http://www.w3.org/2000/svg">
<path d="M61.2 100H3.9V30.3H28.6V79.6H61.2V100ZM116.614 102.2C89.0141 102.2 73.0141 87.6 73.0141 65.2C73.0141 42.8 89.0141 28.1 116.614 28.1C144.514 28.1 160.114 42.5 160.114 65.2C160.114 87.6 144.114 102.2 116.614 102.2ZM116.614 81.8C129.314 81.8 135.214 75.3 135.214 65.2C135.214 55 129.314 48.5 116.614 48.5C103.914 48.5 97.7141 54.9 97.7141 65.2C97.7141 75.5 103.914 81.8 116.614 81.8ZM216.458 102.2C188.858 102.2 172.858 87.6 172.858 65.2C172.858 42.8 188.858 28.1 216.458 28.1C244.358 28.1 259.958 42.5 259.958 65.2C259.958 87.6 243.958 102.2 216.458 102.2ZM216.458 81.8C229.158 81.8 235.058 75.3 235.058 65.2C235.058 55 229.158 48.5 216.458 48.5C203.758 48.5 197.558 54.9 197.558 65.2C197.558 75.5 203.758 81.8 216.458 81.8ZM320.797 100H295.597V50.7H272.297V30.3H343.797V50.7H320.797V100Z" fill="#FE391F"/>
<path d="M218.6 205L234.2 230H206.6L194.5 208.2H183.5V230H158.9V160.3H198.5C215.3 160.3 231.1 163.5 231.1 183.8C231.1 195.4 226.1 201.7 218.6 205ZM197.4 178.3H183.5V190.1H197.4C200.2 190.1 206.2 190.4 206.2 184C206.2 178 200.3 178.3 197.4 178.3ZM289.29 232.2C261.69 232.2 245.69 217.6 245.69 195.2C245.69 172.8 261.69 158.1 289.29 158.1C317.19 158.1 332.79 172.5 332.79 195.2C332.79 217.6 316.79 232.2 289.29 232.2ZM289.29 211.8C301.99 211.8 307.89 205.3 307.89 195.2C307.89 185 301.99 178.5 289.29 178.5C276.59 178.5 270.39 184.9 270.39 195.2C270.39 205.5 276.59 211.8 289.29 211.8ZM392.502 230H367.802V200.6L336.002 160.3H366.102L379.702 182.3L393.602 160.3H423.702L392.502 200.6V230ZM507.323 230H480.223L477.023 220.8H450.823L447.523 230H420.623L451.023 160.3H477.023L507.323 230ZM464.023 184L457.323 202.7H470.623L464.023 184ZM577.684 230H520.384V160.3H545.084V209.6H577.684V230ZM651.201 230H592.201V160.3H651.201V178.3H616.901V185.8H650.101V204H616.901V212H651.201V230Z" fill="#FE391F"/>
</svg>
