<svg width="362" height="265" viewBox="0 0 362 265" fill="none" xmlns="http://www.w3.org/2000/svg">
<path d="M126.146 201.5H0.698014L11.5734 169.5H167.178C156.673 189.586 141.866 201.5 126.146 201.5Z" stroke="#FF1400"/>
<path d="M255.161 51.7804C257.511 43.7383 258.374 36.4383 257.854 30H115.125L94 92H231.721C242.232 82.2389 250.409 68.0443 255.166 51.7804H255.161ZM183.635 77.2201H151.911L160.911 49.4116H192.979C199.477 49.4116 201.483 54.4396 199.1 62.1314C196.167 71.5976 190.83 77.2201 183.64 77.2201H183.635Z" fill="#FE391F"/>
<path d="M256.841 0H163.686L154 30H297C294.642 11.1508 280.525 0 256.846 0H256.841Z" fill="#FE391F"/>
<path d="M210.931 139.442C217.431 117.902 216.208 102.515 206.798 92H93.3482H67.2007L40 169H67.2007H196.906C202.812 160.431 207.598 150.482 210.926 139.442H210.931ZM140.87 151.73H100.317L110.439 121.599H149.741C158.331 121.599 161.228 125.988 158.331 135.058C154.88 145.883 148.891 151.735 140.87 151.735V151.73Z" fill="#FE391F"/>
<path d="M111.844 202L122 170H67.791L57 202H111.844Z" fill="#E6E6E6"/>
<g clip-path="url(#clip0_628_6)">
<path d="M107.5 216.839L122.443 168.878H140.074L129.888 202.803H153.13L148.905 216.839H112.171H107.5Z" stroke="#FE391F" stroke-miterlimit="10"/>
<path d="M202.658 217.32L202.295 210.99H183.619L179.353 217.32H160.184L196.344 169.354H214.9L221.97 217.32H202.658ZM192.02 198.533H201.504L200.69 185.667L192.02 198.533Z" stroke="#E6E6E6" stroke-miterlimit="10"/>
<path d="M235.126 217.19L249.707 169.225H277.541C295.029 169.225 302.755 178.033 297.998 193.586C293.325 208.862 280.801 217.19 262.701 217.19H235.121H235.126ZM257.178 203.292H263.523C266.233 203.292 276.741 204.6 280.251 193.106C283.358 182.921 274.451 183.128 271.026 183.128H263.322L257.178 203.292Z" stroke="#E6E6E6" stroke-miterlimit="10"/>
<path d="M304.653 217.32L319.355 169.354H361.466L357.652 181.742H333.18L331.597 186.901H355.282L351.428 199.427H327.756L326.066 204.932H350.52L346.706 217.32H304.662H304.653Z" stroke="#E6E6E6" stroke-miterlimit="10"/>
<path d="M154 202H111L106.5 217.5H149.5L154 202Z" fill="#E6E6E6"/>
</g>
<path d="M111.596 202.901L92.6519 263.688H312" stroke="#E6E6E6"/>
<path d="M48.4397 188.779L47.4859 191.491L43.6105 189.919L44.4766 187.457C44.7773 186.602 45.3425 186.223 45.9486 186.469C46.2711 186.6 46.5073 186.832 46.6035 187.136C46.9169 186.823 47.2959 186.757 47.7407 186.937C48.458 187.228 48.7323 187.947 48.4397 188.779ZM44.8635 189.03L45.5529 189.31L45.9193 188.268C46.0009 188.036 45.9077 187.85 45.6853 187.759C45.4796 187.676 45.3115 187.757 45.2298 187.989L44.8635 189.03ZM46.3202 189.621L47.0764 189.927L47.5025 188.716C47.6001 188.439 47.5073 188.233 47.2459 188.127C47.0124 188.032 46.8439 188.132 46.7463 188.41L46.3202 189.621ZM51.6037 179.785L50.5066 182.904L46.6311 181.332L47.0552 180.127L49.9576 181.304L50.6306 179.391L51.6037 179.785ZM54.7127 170.947L54.2488 172.266L53.5575 172.244L52.996 173.841L53.526 174.321L53.0641 175.634L49.7919 172.347L50.2379 171.079L54.7127 170.947ZM51.1603 172.178L52.2441 173.16L52.5766 172.215L51.1603 172.178ZM56.9971 164.453L56.2524 166.57L52.377 164.999L53.1256 162.871C53.6075 161.501 54.6039 160.98 55.8605 161.49C57.0949 161.99 57.4949 163.038 56.9971 164.453ZM53.7745 164.168L55.7095 164.953L55.9404 164.297C56.0539 163.974 56.3923 163.102 55.3971 162.699C54.5185 162.342 54.1887 162.991 54.0393 163.416L53.7745 164.168ZM60.5136 154.457L59.3528 157.757L55.4774 156.185L56.6382 152.885L57.5 153.235L56.7633 155.329L57.3916 155.584L58.0905 153.597L58.9579 153.949L58.259 155.936L58.9151 156.202L59.6518 154.108L60.5136 154.457ZM64.0289 140.003L63.7024 140.931L62.9017 140.607L63.6564 138.462L65.8304 139.343L65.5238 140.215L65.2092 140.152C65.3852 140.573 65.3367 141.09 65.1316 141.673C64.5901 143.212 63.4136 143.757 62.2738 143.295C61.0116 142.783 60.5312 141.476 61.0588 139.976C61.4192 138.951 62.1182 138.265 63.0281 138.207L62.9746 139.479C62.4823 139.505 62.1631 139.745 61.9501 140.35C61.6414 141.227 61.9604 141.784 62.6665 142.07C63.3727 142.356 63.9577 142.102 64.2683 141.219C64.5431 140.438 64.3006 140.152 64.0289 140.003ZM68.9937 130.351L68.5298 131.67L67.8385 131.648L67.277 133.244L67.807 133.724L67.3451 135.038L64.0729 131.751L64.5189 130.483L68.9937 130.351ZM65.4413 131.582L66.5251 132.564L66.8576 131.619L65.4413 131.582ZM69.7892 122.671L67.9482 120.735L68.5137 119.127L72.3891 120.699L71.963 121.91L69.6611 120.977L71.285 122.664L70.9167 123.711L68.6631 123.832L70.9595 124.763L70.5354 125.969L66.6599 124.397L67.2214 122.801L69.7892 122.671ZM75.1874 112.744L74.0266 116.044L70.1511 114.473L71.312 111.173L72.1738 111.522L71.4371 113.617L72.0654 113.871L72.7643 111.885L73.6316 112.236L72.9328 114.223L73.5889 114.489L74.3256 112.395L75.1874 112.744ZM77.6603 106.058C77.1725 107.445 76.4013 107.921 75.5893 107.863L75.7564 106.612C76.2721 106.627 76.6257 106.182 76.781 105.74C76.9084 105.378 76.921 105.053 76.6763 104.954C76.465 104.868 76.3319 104.976 75.9463 105.693C75.3753 106.774 74.8362 107.241 74.0911 106.939C73.2682 106.605 73.1355 105.646 73.474 104.684C73.7547 103.886 74.1946 103.34 74.8444 103.028L75.19 104.086C74.7977 104.244 74.453 104.628 74.3016 105.058C74.1882 105.381 74.219 105.6 74.3913 105.67C74.5748 105.744 74.7335 105.582 75.0526 105C75.4322 104.301 75.9848 103.29 76.9745 103.691C77.7641 104.011 78.1143 104.767 77.6603 106.058Z" fill="#E6E6E6"/>
<path d="M121.938 238H120.54L120.3 237.34H118.608L118.362 238H116.97L118.788 233.818H120.132L121.938 238ZM119.46 235.054L118.956 236.404H119.958L119.46 235.054ZM125.686 238H124.408V233.818H128.194V234.748H125.686V235.606H127.888V236.542H125.686V238ZM130.941 236.374V235.042H132.033V238H130.941V237.73C130.671 237.97 130.317 238.066 129.915 238.066C129.039 238.066 128.535 237.628 128.535 236.872V235.042H129.621V236.68C129.621 237.034 129.843 237.232 130.233 237.232C130.821 237.232 130.941 236.86 130.941 236.374ZM133.594 238.072C132.976 238.072 132.7 237.748 132.7 237.208V233.818H133.792V236.938C133.792 237.082 133.87 237.166 133.996 237.166C134.056 237.166 134.152 237.154 134.23 237.142V237.97C134.056 238.03 133.798 238.072 133.594 238.072ZM135.642 238.072C135.024 238.072 134.748 237.748 134.748 237.208V233.818H135.84V236.938C135.84 237.082 135.918 237.166 136.044 237.166C136.104 237.166 136.2 237.154 136.278 237.142V237.97C136.104 238.03 135.846 238.072 135.642 238.072ZM138.212 239.224H137.036L137.714 237.892L136.328 235.042H137.6L138.296 236.83L139.082 235.042H140.348L138.212 239.224ZM145.239 238.114C143.637 238.114 142.689 237.244 142.689 235.912C142.689 234.574 143.637 233.704 145.239 233.704C146.865 233.704 147.789 234.562 147.789 235.912C147.789 237.25 146.847 238.114 145.239 238.114ZM145.239 237.064C146.079 237.064 146.499 236.614 146.499 235.912C146.499 235.204 146.079 234.754 145.239 234.754C144.399 234.754 143.967 235.198 143.967 235.912C143.967 236.626 144.399 237.064 145.239 237.064ZM150.493 234.976C151.309 234.976 151.843 235.378 151.843 236.014V238H150.751V236.446C150.751 236.02 150.547 235.81 150.151 235.81C149.689 235.81 149.431 236.098 149.431 236.638V238H148.339V235.042H149.431V235.39C149.671 235.12 150.025 234.976 150.493 234.976ZM154.267 236.638H152.431V235.912H154.267V236.638ZM157.351 238.114C155.725 238.114 154.729 237.238 154.729 235.912C154.729 234.58 155.713 233.704 157.333 233.704C158.539 233.704 159.343 234.172 159.733 234.976L158.533 235.354C158.323 234.892 157.933 234.676 157.333 234.676C156.469 234.676 156.013 235.144 156.013 235.9C156.013 236.656 156.481 237.136 157.351 237.136C157.975 237.136 158.329 236.914 158.533 236.434L159.739 236.794C159.385 237.646 158.563 238.114 157.351 238.114ZM162.398 234.976C163.214 234.976 163.748 235.378 163.748 236.014V238H162.656V236.446C162.656 236.02 162.452 235.81 162.056 235.81C161.594 235.81 161.336 236.098 161.336 236.638V238H160.244V233.818H161.336V235.39C161.576 235.12 161.93 234.976 162.398 234.976ZM166.082 234.976C167.198 234.976 167.75 235.366 167.75 236.176V238H166.862L166.742 237.64C166.49 237.952 166.106 238.066 165.692 238.066C164.774 238.066 164.27 237.712 164.27 237.07C164.27 236.482 164.708 236.158 165.494 236.158H166.562C166.55 235.906 166.46 235.72 165.998 235.72C165.626 235.72 165.266 235.81 164.894 236.026L164.354 235.378C164.96 235.066 165.512 234.976 166.082 234.976ZM165.902 237.376C166.304 237.376 166.52 237.124 166.556 236.848H165.854C165.614 236.848 165.458 236.926 165.458 237.1C165.458 237.286 165.65 237.376 165.902 237.376ZM169.547 234.634L168.335 234.634V233.818L169.547 233.818V234.634ZM169.493 238H168.395V235.042L169.493 235.042V238ZM172.34 234.976C173.156 234.976 173.69 235.378 173.69 236.014V238H172.598V236.446C172.598 236.02 172.394 235.81 171.998 235.81C171.536 235.81 171.278 236.098 171.278 236.638V238L170.186 238V235.042H171.278V235.39C171.518 235.12 171.872 234.976 172.34 234.976ZM179.95 236.518H178.966V235.654H181.24V238H180.316L180.256 237.682C179.932 237.988 179.434 238.114 178.816 238.114C177.184 238.114 176.236 237.184 176.236 235.954C176.236 234.592 177.268 233.704 178.858 233.704C179.944 233.704 180.844 234.136 181.24 234.976L180.04 235.348C179.83 234.892 179.488 234.67 178.846 234.67C177.916 234.67 177.52 235.156 177.52 235.918C177.52 236.68 177.976 237.148 178.912 237.148C179.74 237.148 179.914 236.824 179.95 236.518ZM183.554 234.976C184.67 234.976 185.222 235.366 185.222 236.176V238H184.334L184.214 237.64C183.962 237.952 183.578 238.066 183.164 238.066C182.246 238.066 181.742 237.712 181.742 237.07C181.742 236.482 182.18 236.158 182.966 236.158H184.034C184.022 235.906 183.932 235.72 183.47 235.72C183.098 235.72 182.738 235.81 182.366 236.026L181.826 235.378C182.432 235.066 182.984 234.976 183.554 234.976ZM183.374 237.376C183.776 237.376 183.992 237.124 184.028 236.848H183.326C183.086 236.848 182.93 236.926 182.93 237.1C182.93 237.286 183.122 237.376 183.374 237.376ZM190.152 234.976C191.004 234.976 191.454 235.552 191.454 236.068V238H190.344V236.38C190.344 236.032 190.134 235.81 189.816 235.81C189.114 235.81 189.204 236.398 189.204 236.644V238H188.112V236.362C188.112 236.02 187.908 235.81 187.602 235.81C186.918 235.81 186.966 236.398 186.966 236.644V238H185.868V235.042H186.912V235.42C187.164 235.066 187.554 234.976 187.89 234.976C188.298 234.976 188.73 235.102 188.964 235.558C189.294 235.054 189.762 234.976 190.152 234.976ZM193.252 234.634H192.04V233.818H193.252V234.634ZM193.198 238H192.1V235.042H193.198V238ZM196.045 234.976C196.861 234.976 197.395 235.378 197.395 236.014V238H196.303V236.446C196.303 236.02 196.099 235.81 195.703 235.81C195.241 235.81 194.983 236.098 194.983 236.638V238H193.891V235.042H194.983V235.39C195.223 235.12 195.577 234.976 196.045 234.976ZM200.215 237.568C201.067 237.646 201.397 237.874 201.397 238.342C201.397 238.972 200.749 239.362 199.663 239.362C198.589 239.362 197.851 238.978 197.851 238.408C197.851 238.354 197.875 238.258 197.881 238.21L198.253 237.97C198.055 237.832 197.959 237.646 197.959 237.406C197.959 237.178 198.055 236.98 198.241 236.812C198.079 236.638 197.989 236.41 197.989 236.128C197.989 235.378 198.661 234.976 199.549 234.976C199.861 234.976 200.143 235.024 200.383 235.12L200.965 234.7L201.433 235.384L201.013 235.666C201.085 235.81 201.127 235.972 201.127 236.158C201.127 236.908 200.515 237.268 199.591 237.268C199.321 237.268 199.075 237.238 198.859 237.172C198.841 237.196 198.835 237.22 198.835 237.25C198.835 237.436 198.979 237.448 200.215 237.568ZM199.561 235.72C199.273 235.72 199.081 235.882 199.081 236.122C199.081 236.38 199.279 236.554 199.573 236.554C199.843 236.554 200.047 236.38 200.047 236.122C200.047 235.882 199.855 235.72 199.561 235.72ZM199.705 238.732C200.131 238.732 200.311 238.648 200.311 238.51C200.311 238.378 200.173 238.354 199.393 238.282C199.255 238.27 199.129 238.252 199.015 238.234L198.907 238.378C198.901 238.39 198.901 238.402 198.901 238.408C198.901 238.642 199.333 238.732 199.705 238.732ZM206.229 238.114C204.759 238.114 204.027 237.544 203.775 236.758L204.999 236.5C205.179 236.992 205.725 237.178 206.193 237.178C206.577 237.178 206.883 237.082 206.883 236.818C206.883 236.59 206.733 236.5 205.923 236.374C204.705 236.194 204.069 235.84 204.069 235.036C204.069 234.148 204.909 233.704 205.929 233.704C206.775 233.704 207.447 233.938 207.981 234.448L207.129 235.126C206.835 234.808 206.349 234.61 205.893 234.61C205.551 234.61 205.359 234.712 205.359 234.898C205.359 235.096 205.569 235.192 206.229 235.3C207.021 235.426 208.167 235.612 208.167 236.68C208.167 237.532 207.597 238.114 206.229 238.114ZM210.609 237.28C210.747 237.28 210.927 237.256 211.101 237.214V237.97C210.861 238.03 210.663 238.066 210.357 238.066C209.529 238.066 209.067 237.694 209.067 237.028V235.798H208.473V235.042H209.067V234.418L210.141 233.932V235.042H211.095V235.798H210.141V236.878C210.141 237.16 210.303 237.28 210.609 237.28ZM214.091 236.374V235.042H215.183V238H214.091V237.73C213.821 237.97 213.467 238.066 213.065 238.066C212.189 238.066 211.685 237.628 211.685 236.872V235.042H212.771V236.68C212.771 237.034 212.993 237.232 213.383 237.232C213.971 237.232 214.091 236.86 214.091 236.374ZM218.429 235.36V233.818H219.521V238H218.429V237.748C218.177 237.958 217.859 238.066 217.505 238.066C216.437 238.066 215.741 237.454 215.741 236.506C215.741 235.588 216.431 234.976 217.457 234.976C217.841 234.976 218.237 235.138 218.429 235.36ZM217.631 237.232C218.105 237.232 218.429 236.944 218.429 236.512C218.429 236.08 218.105 235.792 217.631 235.792C217.157 235.792 216.833 236.086 216.833 236.512C216.833 236.938 217.157 237.232 217.631 237.232ZM221.37 234.634H220.158V233.818H221.37V234.634ZM221.316 238H220.218V235.042H221.316V238ZM223.761 238.066C222.615 238.066 221.871 237.454 221.871 236.518C221.871 235.582 222.609 234.976 223.761 234.976C224.919 234.976 225.645 235.576 225.645 236.518C225.645 237.454 224.901 238.066 223.761 238.066ZM223.761 237.214C224.247 237.214 224.559 236.944 224.559 236.518C224.559 236.086 224.259 235.828 223.761 235.828C223.263 235.828 222.957 236.086 222.957 236.518C222.957 236.938 223.269 237.214 223.761 237.214ZM230.506 238H228.262V233.818H230.518C231.97 233.818 232.828 234.586 232.828 235.942C232.828 237.274 232.006 238 230.506 238ZM229.558 234.862V236.95H230.254C230.596 236.95 231.532 236.98 231.532 235.906C231.532 234.958 230.806 234.862 230.356 234.862H229.558ZM236.789 236.572C236.789 236.626 236.783 236.722 236.765 236.866H234.389C234.461 237.112 234.731 237.256 235.169 237.256C235.487 237.256 235.937 237.172 236.219 237.052L236.615 237.796C236.117 237.976 235.643 238.066 235.169 238.066C233.993 238.066 233.231 237.46 233.231 236.536C233.231 235.624 233.981 234.976 235.037 234.976C236.117 234.976 236.789 235.582 236.789 236.572ZM234.383 236.152H235.667C235.643 235.888 235.391 235.726 235.061 235.726C234.725 235.726 234.449 235.9 234.383 236.152ZM239.907 235.36V233.818H240.999V238H239.907V237.748C239.655 237.958 239.337 238.066 238.983 238.066C237.915 238.066 237.219 237.454 237.219 236.506C237.219 235.588 237.909 234.976 238.935 234.976C239.319 234.976 239.715 235.138 239.907 235.36ZM239.109 237.232C239.583 237.232 239.907 236.944 239.907 236.512C239.907 236.08 239.583 235.792 239.109 235.792C238.635 235.792 238.311 236.086 238.311 236.512C238.311 236.938 238.635 237.232 239.109 237.232ZM242.848 234.634H241.636V233.818H242.848V234.634ZM242.794 238H241.696V235.042H242.794V238ZM245.251 238.066C244.081 238.066 243.349 237.43 243.349 236.53C243.349 235.618 244.063 234.976 245.245 234.976C246.151 234.976 246.685 235.282 247.021 235.882L246.019 236.23C245.899 236.008 245.647 235.828 245.245 235.828C244.747 235.828 244.435 236.11 244.435 236.53C244.435 236.944 244.759 237.214 245.245 237.214C245.623 237.214 245.917 237.058 246.007 236.8L246.985 237.154C246.721 237.742 246.097 238.066 245.251 238.066ZM249.231 234.976C250.347 234.976 250.899 235.366 250.899 236.176V238H250.011L249.891 237.64C249.639 237.952 249.255 238.066 248.841 238.066C247.923 238.066 247.419 237.712 247.419 237.07C247.419 236.482 247.857 236.158 248.643 236.158H249.711C249.699 235.906 249.609 235.72 249.147 235.72C248.775 235.72 248.415 235.81 248.043 236.026L247.503 235.378C248.109 235.066 248.661 234.976 249.231 234.976ZM249.051 237.376C249.453 237.376 249.669 237.124 249.705 236.848H249.003C248.763 236.848 248.607 236.926 248.607 237.1C248.607 237.286 248.799 237.376 249.051 237.376ZM253.507 237.28C253.645 237.28 253.825 237.256 253.999 237.214V237.97C253.759 238.03 253.561 238.066 253.255 238.066C252.427 238.066 251.965 237.694 251.965 237.028V235.798H251.371V235.042H251.965V234.418L253.039 233.932V235.042H253.993V235.798H253.039V236.878C253.039 237.16 253.201 237.28 253.507 237.28ZM258.044 236.572C258.044 236.626 258.038 236.722 258.02 236.866H255.644C255.716 237.112 255.986 237.256 256.424 237.256C256.742 237.256 257.192 237.172 257.474 237.052L257.87 237.796C257.372 237.976 256.898 238.066 256.424 238.066C255.248 238.066 254.486 237.46 254.486 236.536C254.486 235.624 255.236 234.976 256.292 234.976C257.372 234.976 258.044 235.582 258.044 236.572ZM255.638 236.152H256.922C256.898 235.888 256.646 235.726 256.316 235.726C255.98 235.726 255.704 235.9 255.638 236.152ZM261.162 235.36V233.818H262.254V238H261.162V237.748C260.91 237.958 260.592 238.066 260.238 238.066C259.17 238.066 258.474 237.454 258.474 236.506C258.474 235.588 259.164 234.976 260.19 234.976C260.574 234.976 260.97 235.138 261.162 235.36ZM260.364 237.232C260.838 237.232 261.162 236.944 261.162 236.512C261.162 236.08 260.838 235.792 260.364 235.792C259.89 235.792 259.566 236.086 259.566 236.512C259.566 236.938 259.89 237.232 260.364 237.232ZM267.562 238H266.266V234.868H264.79V233.818L269.026 233.818V234.868H267.562V238ZM270.717 238.066C269.571 238.066 268.827 237.454 268.827 236.518C268.827 235.582 269.565 234.976 270.717 234.976C271.875 234.976 272.601 235.576 272.601 236.518C272.601 237.454 271.857 238.066 270.717 238.066ZM270.717 237.214C271.203 237.214 271.515 236.944 271.515 236.518C271.515 236.086 271.215 235.828 270.717 235.828C270.219 235.828 269.913 236.086 269.913 236.518C269.913 236.938 270.225 237.214 270.717 237.214ZM278.098 238H275.224V233.818H277.834C278.74 233.818 279.304 234.226 279.304 234.88C279.304 235.228 279.178 235.528 278.932 235.72C279.34 235.912 279.544 236.248 279.544 236.728C279.544 237.502 278.98 238 278.098 238ZM276.52 234.706V235.45H277.624C277.87 235.45 278.008 235.3 278.008 235.06C278.008 234.838 277.87 234.706 277.624 234.706H276.52ZM276.52 236.278V237.094H277.804C278.098 237.094 278.254 236.938 278.254 236.656C278.254 236.404 278.098 236.278 277.804 236.278H276.52ZM280.96 238.072C280.342 238.072 280.066 237.748 280.066 237.208V233.818H281.158V236.938C281.158 237.082 281.236 237.166 281.362 237.166C281.422 237.166 281.518 237.154 281.596 237.142V237.97C281.422 238.03 281.164 238.072 280.96 238.072ZM284.503 236.374V235.042H285.595V238H284.503V237.73C284.233 237.97 283.879 238.066 283.477 238.066C282.601 238.066 282.097 237.628 282.097 236.872V235.042H283.183V236.68C283.183 237.034 283.405 237.232 283.795 237.232C284.383 237.232 284.503 236.86 284.503 236.374ZM288.259 234.976C288.577 234.976 288.793 235.03 289.063 235.174L288.529 236.026C288.415 235.96 288.205 235.918 288.061 235.918C287.623 235.918 287.377 236.146 287.377 236.602V238H286.285V235.042H287.389V235.354C287.593 235.126 287.911 234.976 288.259 234.976ZM291.497 234.976C291.815 234.976 292.031 235.03 292.301 235.174L291.767 236.026C291.653 235.96 291.443 235.918 291.299 235.918C290.861 235.918 290.615 236.146 290.615 236.602V238H289.523V235.042H290.627V235.354C290.831 235.126 291.149 234.976 291.497 234.976ZM293.913 234.634H292.701V233.818H293.913V234.634ZM293.859 238H292.761V235.042H293.859V238ZM296.705 234.976C297.521 234.976 298.055 235.378 298.055 236.014V238H296.963V236.446C296.963 236.02 296.759 235.81 296.363 235.81C295.901 235.81 295.643 236.098 295.643 236.638V238H294.551V235.042H295.643V235.39C295.883 235.12 296.237 234.976 296.705 234.976ZM300.875 237.568C301.727 237.646 302.057 237.874 302.057 238.342C302.057 238.972 301.409 239.362 300.323 239.362C299.249 239.362 298.511 238.978 298.511 238.408C298.511 238.354 298.535 238.258 298.541 238.21L298.913 237.97C298.715 237.832 298.619 237.646 298.619 237.406C298.619 237.178 298.715 236.98 298.901 236.812C298.739 236.638 298.649 236.41 298.649 236.128C298.649 235.378 299.321 234.976 300.209 234.976C300.521 234.976 300.803 235.024 301.043 235.12L301.625 234.7L302.093 235.384L301.673 235.666C301.745 235.81 301.787 235.972 301.787 236.158C301.787 236.908 301.175 237.268 300.251 237.268C299.981 237.268 299.735 237.238 299.519 237.172C299.501 237.196 299.495 237.22 299.495 237.25C299.495 237.436 299.639 237.448 300.875 237.568ZM300.221 235.72C299.933 235.72 299.741 235.882 299.741 236.122C299.741 236.38 299.939 236.554 300.233 236.554C300.503 236.554 300.707 236.38 300.707 236.122C300.707 235.882 300.515 235.72 300.221 235.72ZM300.365 238.732C300.791 238.732 300.971 238.648 300.971 238.51C300.971 238.378 300.833 238.354 300.053 238.282C299.915 238.27 299.789 238.252 299.675 238.234L299.567 238.378C299.561 238.39 299.561 238.402 299.561 238.408C299.561 238.642 299.993 238.732 300.365 238.732ZM307.202 238H305.906V234.868H304.43V233.818H308.666V234.868H307.202V238ZM311.286 234.976C312.102 234.976 312.636 235.378 312.636 236.014V238H311.544V236.446C311.544 236.02 311.34 235.81 310.944 235.81C310.482 235.81 310.224 236.098 310.224 236.638V238H309.132V233.818H310.224V235.39C310.464 235.12 310.818 234.976 311.286 234.976ZM316.71 236.572C316.71 236.626 316.704 236.722 316.686 236.866H314.31C314.382 237.112 314.652 237.256 315.09 237.256C315.408 237.256 315.858 237.172 316.14 237.052L316.536 237.796C316.038 237.976 315.564 238.066 315.09 238.066C313.914 238.066 313.152 237.46 313.152 236.536C313.152 235.624 313.902 234.976 314.958 234.976C316.038 234.976 316.71 235.582 316.71 236.572ZM314.304 236.152H315.588C315.564 235.888 315.312 235.726 314.982 235.726C314.646 235.726 314.37 235.9 314.304 236.152ZM322.644 238H319.338V233.818H320.616V236.95H322.644V238ZM324.267 234.634H323.055V233.818H324.267V234.634ZM324.213 238H323.115V235.042H324.213V238ZM327.059 234.976C327.875 234.976 328.409 235.378 328.409 236.014V238H327.317V236.446C327.317 236.02 327.113 235.81 326.717 235.81C326.255 235.81 325.997 236.098 325.997 236.638V238H324.905V235.042H325.997V235.39C326.237 235.12 326.591 234.976 327.059 234.976ZM332.483 236.572C332.483 236.626 332.477 236.722 332.459 236.866H330.083C330.155 237.112 330.425 237.256 330.863 237.256C331.181 237.256 331.631 237.172 331.913 237.052L332.309 237.796C331.811 237.976 331.337 238.066 330.863 238.066C329.687 238.066 328.925 237.46 328.925 236.536C328.925 235.624 329.675 234.976 330.731 234.976C331.811 234.976 332.483 235.582 332.483 236.572ZM330.077 236.152H331.361C331.337 235.888 331.085 235.726 330.755 235.726C330.419 235.726 330.143 235.9 330.077 236.152ZM334.576 238.066C333.796 238.066 333.28 237.88 332.782 237.514L333.424 236.974C333.76 237.202 334.15 237.322 334.594 237.322C334.924 237.322 335.038 237.262 335.038 237.118C335.038 236.704 333.004 237.346 333.004 236.02C333.004 235.348 333.634 234.976 334.504 234.976C335.068 234.976 335.536 235.12 335.992 235.336L335.458 235.93C335.11 235.798 334.816 235.708 334.426 235.708C334.216 235.708 334.024 235.744 334.024 235.864C334.024 236.242 336.124 235.57 336.112 236.992C336.112 237.646 335.53 238.066 334.576 238.066ZM120.156 251H117.282V246.818H119.892C120.798 246.818 121.362 247.226 121.362 247.88C121.362 248.228 121.236 248.528 120.99 248.72C121.398 248.912 121.602 249.248 121.602 249.728C121.602 250.502 121.038 251 120.156 251ZM118.578 247.706V248.45H119.682C119.928 248.45 120.066 248.3 120.066 248.06C120.066 247.838 119.928 247.706 119.682 247.706H118.578ZM118.578 249.278V250.094H119.862C120.156 250.094 120.312 249.938 120.312 249.656C120.312 249.404 120.156 249.278 119.862 249.278H118.578ZM125.569 249.572C125.569 249.626 125.563 249.722 125.545 249.866H123.169C123.241 250.112 123.511 250.256 123.949 250.256C124.267 250.256 124.717 250.172 124.999 250.052L125.395 250.796C124.897 250.976 124.423 251.066 123.949 251.066C122.773 251.066 122.011 250.46 122.011 249.536C122.011 248.624 122.761 247.976 123.817 247.976C124.897 247.976 125.569 248.582 125.569 249.572ZM123.163 249.152H124.447C124.423 248.888 124.171 248.726 123.841 248.726C123.505 248.726 123.229 248.9 123.163 249.152ZM128.093 250.28C128.231 250.28 128.411 250.256 128.585 250.214V250.97C128.345 251.03 128.147 251.066 127.841 251.066C127.013 251.066 126.551 250.694 126.551 250.028V248.798H125.957V248.042H126.551V247.418L127.625 246.932V248.042H128.579V248.798H127.625V249.878C127.625 250.16 127.787 250.28 128.093 250.28ZM131.124 251H130.128L128.964 248.042H130.14L130.68 249.56L131.226 248.042H132.162L132.714 249.548L133.254 248.042H134.43L133.26 251H132.288L131.694 249.362L131.124 251ZM138.153 249.572C138.153 249.626 138.147 249.722 138.129 249.866H135.753C135.825 250.112 136.095 250.256 136.533 250.256C136.851 250.256 137.301 250.172 137.583 250.052L137.979 250.796C137.481 250.976 137.007 251.066 136.533 251.066C135.357 251.066 134.595 250.46 134.595 249.536C134.595 248.624 135.345 247.976 136.401 247.976C137.481 247.976 138.153 248.582 138.153 249.572ZM135.747 249.152H137.031C137.007 248.888 136.755 248.726 136.425 248.726C136.089 248.726 135.813 248.9 135.747 249.152ZM142.135 249.572C142.135 249.626 142.129 249.722 142.111 249.866H139.735C139.807 250.112 140.077 250.256 140.515 250.256C140.833 250.256 141.283 250.172 141.565 250.052L141.961 250.796C141.463 250.976 140.989 251.066 140.515 251.066C139.339 251.066 138.577 250.46 138.577 249.536C138.577 248.624 139.327 247.976 140.383 247.976C141.463 247.976 142.135 248.582 142.135 249.572ZM139.729 249.152H141.013C140.989 248.888 140.737 248.726 140.407 248.726C140.071 248.726 139.795 248.9 139.729 249.152ZM144.851 247.976C145.667 247.976 146.201 248.378 146.201 249.014V251H145.109V249.446C145.109 249.02 144.905 248.81 144.509 248.81C144.047 248.81 143.789 249.098 143.789 249.638V251H142.697V248.042H143.789V248.39C144.029 248.12 144.383 247.976 144.851 247.976ZM151.165 251H148.921V246.818H151.177C152.629 246.818 153.487 247.586 153.487 248.942C153.487 250.274 152.665 251 151.165 251ZM150.217 247.862V249.95H150.913C151.255 249.95 152.191 249.98 152.191 248.906C152.191 247.958 151.465 247.862 151.015 247.862H150.217ZM155.18 247.634H153.968V246.818H155.18V247.634ZM155.126 251H154.028V248.042H155.126V251ZM157.985 250.568C158.837 250.646 159.167 250.874 159.167 251.342C159.167 251.972 158.519 252.362 157.433 252.362C156.359 252.362 155.621 251.978 155.621 251.408C155.621 251.354 155.645 251.258 155.651 251.21L156.023 250.97C155.825 250.832 155.729 250.646 155.729 250.406C155.729 250.178 155.825 249.98 156.011 249.812C155.849 249.638 155.759 249.41 155.759 249.128C155.759 248.378 156.431 247.976 157.319 247.976C157.631 247.976 157.913 248.024 158.153 248.12L158.735 247.7L159.203 248.384L158.783 248.666C158.855 248.81 158.897 248.972 158.897 249.158C158.897 249.908 158.285 250.268 157.361 250.268C157.091 250.268 156.845 250.238 156.629 250.172C156.611 250.196 156.605 250.22 156.605 250.25C156.605 250.436 156.749 250.448 157.985 250.568ZM157.331 248.72C157.043 248.72 156.851 248.882 156.851 249.122C156.851 249.38 157.049 249.554 157.343 249.554C157.613 249.554 157.817 249.38 157.817 249.122C157.817 248.882 157.625 248.72 157.331 248.72ZM157.475 251.732C157.901 251.732 158.081 251.648 158.081 251.51C158.081 251.378 157.943 251.354 157.163 251.282C157.025 251.27 156.899 251.252 156.785 251.234L156.677 251.378C156.671 251.39 156.671 251.402 156.671 251.408C156.671 251.642 157.103 251.732 157.475 251.732ZM160.853 247.634H159.641V246.818H160.853V247.634ZM160.799 251H159.701V248.042H160.799V251ZM163.454 250.28C163.592 250.28 163.772 250.256 163.946 250.214V250.97C163.706 251.03 163.508 251.066 163.202 251.066C162.374 251.066 161.912 250.694 161.912 250.028V248.798H161.318V248.042H161.912V247.418L162.986 246.932V248.042H163.94V248.798H162.986V249.878C162.986 250.16 163.148 250.28 163.454 250.28ZM166.252 247.976C167.368 247.976 167.92 248.366 167.92 249.176V251H167.032L166.912 250.64C166.66 250.952 166.276 251.066 165.862 251.066C164.944 251.066 164.44 250.712 164.44 250.07C164.44 249.482 164.878 249.158 165.664 249.158H166.732C166.72 248.906 166.63 248.72 166.168 248.72C165.796 248.72 165.436 248.81 165.064 249.026L164.524 248.378C165.13 248.066 165.682 247.976 166.252 247.976ZM166.072 250.376C166.474 250.376 166.69 250.124 166.726 249.848H166.024C165.784 249.848 165.628 249.926 165.628 250.1C165.628 250.286 165.82 250.376 166.072 250.376ZM169.435 251.072C168.817 251.072 168.541 250.748 168.541 250.208V246.818H169.633V249.938C169.633 250.082 169.711 250.166 169.837 250.166C169.897 250.166 169.993 250.154 170.071 250.142V250.97C169.897 251.03 169.639 251.072 169.435 251.072ZM176.01 249.44L176.994 251H175.56L174.75 249.584H173.952V251L172.68 251V246.818L174.978 246.818C175.95 246.818 176.832 247.016 176.832 248.174C176.832 248.9 176.502 249.266 176.01 249.44ZM174.924 247.748H173.952V248.648H174.924C175.164 248.648 175.548 248.636 175.548 248.186C175.548 247.76 175.17 247.748 174.924 247.748ZM180.797 249.572C180.797 249.626 180.791 249.722 180.773 249.866H178.397C178.469 250.112 178.739 250.256 179.177 250.256C179.495 250.256 179.945 250.172 180.227 250.052L180.623 250.796C180.125 250.976 179.651 251.066 179.177 251.066C178.001 251.066 177.239 250.46 177.239 249.536C177.239 248.624 177.989 247.976 179.045 247.976C180.125 247.976 180.797 248.582 180.797 249.572ZM178.391 249.152H179.675C179.651 248.888 179.399 248.726 179.069 248.726C178.733 248.726 178.457 248.9 178.391 249.152ZM183.039 247.976C184.155 247.976 184.707 248.366 184.707 249.176V251H183.819L183.699 250.64C183.447 250.952 183.063 251.066 182.649 251.066C181.731 251.066 181.227 250.712 181.227 250.07C181.227 249.482 181.665 249.158 182.451 249.158H183.519C183.507 248.906 183.417 248.72 182.955 248.72C182.583 248.72 182.223 248.81 181.851 249.026L181.311 248.378C181.917 248.066 182.469 247.976 183.039 247.976ZM182.859 250.376C183.261 250.376 183.477 250.124 183.513 249.848H182.811C182.571 249.848 182.415 249.926 182.415 250.1C182.415 250.286 182.607 250.376 182.859 250.376ZM186.222 251.072C185.604 251.072 185.328 250.748 185.328 250.208V246.818H186.42V249.938C186.42 250.082 186.498 250.166 186.624 250.166C186.684 250.166 186.78 250.154 186.858 250.142V250.97C186.684 251.03 186.426 251.072 186.222 251.072ZM188.553 247.634H187.341V246.818H188.553V247.634ZM188.499 251H187.401V248.042H188.499V251ZM191.153 250.28C191.291 250.28 191.471 250.256 191.645 250.214V250.97C191.405 251.03 191.207 251.066 190.901 251.066C190.073 251.066 189.611 250.694 189.611 250.028V248.798H189.017V248.042H189.611V247.418L190.685 246.932V248.042H191.639V248.798H190.685V249.878C190.685 250.16 190.847 250.28 191.153 250.28ZM193.423 247.634H192.211V246.818H193.423V247.634ZM193.369 251H192.271V248.042H193.369V251ZM197.482 249.572C197.482 249.626 197.476 249.722 197.458 249.866H195.082C195.154 250.112 195.424 250.256 195.862 250.256C196.18 250.256 196.63 250.172 196.912 250.052L197.308 250.796C196.81 250.976 196.336 251.066 195.862 251.066C194.686 251.066 193.924 250.46 193.924 249.536C193.924 248.624 194.674 247.976 195.73 247.976C196.81 247.976 197.482 248.582 197.482 249.572ZM195.076 249.152H196.36C196.336 248.888 196.084 248.726 195.754 248.726C195.418 248.726 195.142 248.9 195.076 249.152ZM199.575 251.066C198.795 251.066 198.279 250.88 197.781 250.514L198.423 249.974C198.759 250.202 199.149 250.322 199.593 250.322C199.923 250.322 200.037 250.262 200.037 250.118C200.037 249.704 198.003 250.346 198.003 249.02C198.003 248.348 198.633 247.976 199.503 247.976C200.067 247.976 200.535 248.12 200.991 248.336L200.457 248.93C200.109 248.798 199.815 248.708 199.425 248.708C199.215 248.708 199.023 248.744 199.023 248.864C199.023 249.242 201.123 248.57 201.111 249.992C201.111 250.646 200.529 251.066 199.575 251.066ZM208.379 251H206.981L206.741 250.34H205.049L204.803 251H203.411L205.229 246.818H206.573L208.379 251ZM205.901 248.054L205.397 249.404H206.399L205.901 248.054ZM210.937 247.976C211.753 247.976 212.287 248.378 212.287 249.014V251H211.195V249.446C211.195 249.02 210.991 248.81 210.595 248.81C210.133 248.81 209.875 249.098 209.875 249.638V251H208.783V248.042H209.875V248.39C210.115 248.12 210.469 247.976 210.937 247.976ZM215.497 248.36V246.818H216.589V251H215.497V250.748C215.245 250.958 214.927 251.066 214.573 251.066C213.505 251.066 212.809 250.454 212.809 249.506C212.809 248.588 213.499 247.976 214.525 247.976C214.909 247.976 215.305 248.138 215.497 248.36ZM214.699 250.232C215.173 250.232 215.497 249.944 215.497 249.512C215.497 249.08 215.173 248.792 214.699 248.792C214.225 248.792 213.901 249.086 213.901 249.512C213.901 249.938 214.225 250.232 214.699 250.232ZM222.682 249.44L223.666 251H222.232L221.422 249.584H220.624V251H219.352V246.818H221.65C222.622 246.818 223.504 247.016 223.504 248.174C223.504 248.9 223.174 249.266 222.682 249.44ZM221.596 247.748H220.624V248.648H221.596C221.836 248.648 222.22 248.636 222.22 248.186C222.22 247.76 221.842 247.748 221.596 247.748ZM227.469 249.572C227.469 249.626 227.463 249.722 227.445 249.866H225.069C225.141 250.112 225.411 250.256 225.849 250.256C226.167 250.256 226.617 250.172 226.899 250.052L227.295 250.796C226.797 250.976 226.323 251.066 225.849 251.066C224.673 251.066 223.911 250.46 223.911 249.536C223.911 248.624 224.661 247.976 225.717 247.976C226.797 247.976 227.469 248.582 227.469 249.572ZM225.063 249.152H226.347C226.323 248.888 226.071 248.726 225.741 248.726C225.405 248.726 225.129 248.9 225.063 249.152ZM229.711 247.976C230.827 247.976 231.379 248.366 231.379 249.176V251H230.491L230.371 250.64C230.119 250.952 229.735 251.066 229.321 251.066C228.403 251.066 227.899 250.712 227.899 250.07C227.899 249.482 228.337 249.158 229.123 249.158H230.191C230.179 248.906 230.089 248.72 229.627 248.72C229.255 248.72 228.895 248.81 228.523 249.026L227.983 248.378C228.589 248.066 229.141 247.976 229.711 247.976ZM229.531 250.376C229.933 250.376 230.149 250.124 230.185 249.848H229.483C229.243 249.848 229.087 249.926 229.087 250.1C229.087 250.286 229.279 250.376 229.531 250.376ZM232.895 251.072C232.277 251.072 232.001 250.748 232.001 250.208V246.818H233.093V249.938C233.093 250.082 233.171 250.166 233.297 250.166C233.357 250.166 233.453 250.154 233.531 250.142V250.97C233.357 251.03 233.099 251.072 232.895 251.072ZM240.561 249.26L241.395 246.818H242.817L241.215 251H240.057L239.331 248.894L238.605 251H237.441L235.845 246.818H237.255L238.107 249.254L238.839 247.076H239.817L240.561 249.26ZM244.563 251.066C243.417 251.066 242.673 250.454 242.673 249.518C242.673 248.582 243.411 247.976 244.563 247.976C245.721 247.976 246.447 248.576 246.447 249.518C246.447 250.454 245.703 251.066 244.563 251.066ZM244.563 250.214C245.049 250.214 245.361 249.944 245.361 249.518C245.361 249.086 245.061 248.828 244.563 248.828C244.065 248.828 243.759 249.086 243.759 249.518C243.759 249.938 244.071 250.214 244.563 250.214ZM248.972 247.976C249.29 247.976 249.506 248.03 249.776 248.174L249.242 249.026C249.128 248.96 248.918 248.918 248.774 248.918C248.336 248.918 248.09 249.146 248.09 249.602V251H246.998V248.042H248.102V248.354C248.306 248.126 248.624 247.976 248.972 247.976ZM251.106 251.072C250.488 251.072 250.212 250.748 250.212 250.208V246.818H251.304V249.938C251.304 250.082 251.382 250.166 251.508 250.166C251.568 250.166 251.664 250.154 251.742 250.142V250.97C251.568 251.03 251.31 251.072 251.106 251.072ZM254.84 248.36V246.818H255.932V251H254.84V250.748C254.588 250.958 254.27 251.066 253.916 251.066C252.848 251.066 252.152 250.454 252.152 249.506C252.152 248.588 252.842 247.976 253.868 247.976C254.252 247.976 254.648 248.138 254.84 248.36ZM254.042 250.232C254.516 250.232 254.84 249.944 254.84 249.512C254.84 249.08 254.516 248.792 254.042 248.792C253.568 248.792 253.244 249.086 253.244 249.512C253.244 249.938 253.568 250.232 254.042 250.232ZM257.889 251H256.659V250.04H257.889V251Z" fill="white"/>
<defs>
<clipPath id="clip0_628_6">
<rect width="265.34" height="49.2605" fill="white" transform="translate(106.578 168.231)"/>
</clipPath>
</defs>
</svg>
