<svg width="198" height="169" viewBox="0 0 198 169" fill="none" xmlns="http://www.w3.org/2000/svg">
<g id="Rectangle 5">
<path d="M51.9382 6.77969C53.3171 2.726 57.1237 0 61.4055 0H187.224C194.075 0 198.898 6.73392 196.691 13.2203L146.25 161.511C144.871 165.565 141.064 168.291 136.783 168.291H10.9642C4.11283 168.291 -0.709452 161.557 1.49689 155.071L51.9382 6.77969Z" fill="#86795B"/>
<path d="M52.4116 6.9407C53.7215 3.0897 57.3378 0.5 61.4055 0.5H187.224C193.733 0.5 198.314 6.89723 196.218 13.0593L145.777 161.35C144.467 165.201 140.85 167.791 136.783 167.791H10.9642C4.4554 167.791 -0.125771 161.394 1.97026 155.232L52.4116 6.9407Z" stroke="#86795B" stroke-opacity="0.6"/>
</g>
</svg>
