<svg width="271" height="47" viewBox="0 0 271 47" fill="none" xmlns="http://www.w3.org/2000/svg">
<g clip-path="url(#clip0_16_498)">
<path d="M76.6812 24.2523C79.8451 22.7766 81.4345 20.5092 81.4345 17.4462C81.4345 15.2306 80.5919 13.3386 78.9174 11.781C77.2429 10.2196 75.0624 9.43896 72.3823 9.43896H60.0184V37.2663H66.9154V25.9771H68.8928C69.8058 25.9771 70.6631 26.3415 71.4619 27.0699C72.2603 27.8024 73.2175 29.4526 74.3414 32.0285C75.4652 34.6043 76.2489 36.3518 76.6996 37.2663H84.2656C83.1012 34.7979 81.8889 32.1739 80.6393 29.3855C79.3866 26.598 78.0707 24.8844 76.6812 24.2523ZM73.3211 20.0517C72.6411 20.6018 71.7207 20.8731 70.56 20.8731H66.9154V14.5388H70.4007C73.0287 14.5388 74.3409 15.5908 74.3409 17.6874C74.3414 18.7098 74.0011 19.4942 73.3211 20.0517Z" fill="white"/>
<path d="M41.2456 25.4752H53.8604V20.3753H41.2456V14.5393H54.4778V14.4018L49.5358 9.43896H34.3555V37.2663H49.4989L54.5667 32.1702H41.2456V25.4752Z" fill="white"/>
<path d="M268.992 24.698C268.101 23.5158 267.04 22.6014 265.813 21.9471C264.586 21.3002 262.945 20.5941 260.901 19.8394C260.797 19.8023 260.69 19.7611 260.587 19.7167C258.724 19.0179 257.538 18.4378 257.038 17.9845C256.51 17.5085 256.244 17.0033 256.244 16.4717C256.244 15.7841 256.614 15.2303 257.349 14.8099C258.081 14.3899 259.068 14.1816 260.306 14.1816C261.644 14.1816 263.259 14.4936 265.159 15.122L269.04 11.2149C265.768 9.79479 262.66 9.08496 259.71 9.08496C256.506 9.08496 253.944 9.81377 252.026 11.2858C250.115 12.7503 249.154 14.6798 249.154 17.07C249.154 18.9212 249.597 20.4339 250.473 21.6123C251.35 22.7944 252.396 23.7052 253.601 24.3447C254.809 24.9804 256.447 25.6717 258.516 26.4154C260.579 27.159 261.884 27.7869 262.427 28.3073C262.97 28.8241 263.237 29.3741 263.237 29.9576C263.237 31.6712 261.884 32.5297 259.178 32.5297C257.581 32.5297 256.069 32.2436 254.643 31.6712C254.244 31.5115 253.834 31.3254 253.401 31.1138L249.731 34.8051V34.9389C252.95 36.7308 256.277 37.6263 259.711 37.6263C262.897 37.6263 265.459 36.8642 267.41 35.3329C269.354 33.8091 270.33 31.7569 270.33 29.1811C270.33 27.3748 269.883 25.8838 268.992 24.698Z" fill="white"/>
<path d="M181 13.3755C178.08 10.5093 174.265 9.08594 169.552 9.08594C164.825 9.08594 160.999 10.5098 158.076 13.3644C155.148 16.2231 153.688 19.5537 153.688 23.3677C153.688 27.241 155.159 30.5869 158.102 33.4081C161.048 36.222 164.866 37.6273 169.553 37.6273C174.188 37.6273 177.984 36.2109 180.941 33.3822C183.901 30.5572 185.376 27.2192 185.376 23.3677C185.376 19.5685 183.919 16.2375 181 13.3755ZM175.873 29.5122C174.276 31.0698 172.169 31.8468 169.552 31.8468C166.924 31.8468 164.81 31.0698 163.206 29.5122C161.598 27.9471 160.8 25.9028 160.8 23.3677C160.8 20.8141 161.598 18.7656 163.206 17.2122C164.81 15.6582 166.924 14.8776 169.552 14.8776C172.169 14.8776 174.276 15.6582 175.873 17.2122C177.47 18.7661 178.268 20.8141 178.268 23.3677C178.268 25.9024 177.47 27.9471 175.873 29.5122Z" fill="white"/>
<path d="M112.981 13.3755C110.065 10.5093 106.247 9.08594 101.538 9.08594C96.8067 9.08594 92.9812 10.5098 90.0576 13.3644C87.1339 16.2231 85.6703 19.5537 85.6703 23.3677C85.6703 27.241 87.145 30.5869 90.0875 33.4081C93.0295 36.222 96.8514 37.6273 101.538 37.6273C106.17 37.6273 109.966 36.2109 112.926 33.3822C115.883 30.5572 117.362 27.2192 117.362 23.3677C117.361 19.5685 115.901 16.2375 112.981 13.3755ZM107.855 29.5122C106.258 31.0698 104.151 31.8468 101.538 31.8468C98.9099 31.8468 96.792 31.0698 95.1916 29.5122C93.5839 27.9471 92.7781 25.9028 92.7781 23.3677C92.7781 20.8141 93.5839 18.7656 95.1916 17.2122C96.792 15.6582 98.9099 14.8776 101.538 14.8776C104.151 14.8776 106.258 15.6582 107.855 17.2122C109.455 18.7661 110.254 20.8141 110.254 23.3677C110.254 25.9024 109.455 27.9471 107.855 29.5122Z" fill="white"/>
<path d="M212.713 9.43896H185.775V9.44267L188.309 11.9907L185.775 9.44267L188.309 11.9907L190.842 14.5393H195.795V37.2663H202.689V14.5393H207.642L212.713 9.43896Z" fill="white"/>
<path d="M145.693 13.3345C142.954 10.7396 139.229 9.43896 134.516 9.43896H122.314V37.2663H133.74C138.892 37.2663 142.858 36.036 145.634 33.5713C148.413 31.1066 149.803 27.7204 149.803 23.4045C149.803 19.2895 148.436 15.9293 145.693 13.3345ZM140.396 29.7499C138.851 31.3594 136.619 32.1697 133.702 32.1697H129.208V14.5393H133.625C136.552 14.5393 138.803 15.3274 140.367 16.8998C141.93 18.4723 142.718 20.6282 142.718 23.3679C142.718 26.0067 141.941 28.133 140.396 29.7499Z" fill="white"/>
<path d="M237.43 24.9584C237.43 27.1629 236.79 28.8613 235.515 30.0546C234.243 31.2552 232.543 31.8461 230.417 31.8461C228.37 31.8461 226.718 31.2626 225.457 30.0953C224.196 28.9317 223.568 27.3741 223.568 25.434V9.43896H216.653V25.2747C216.653 29.2633 217.865 32.3151 220.29 34.4377C222.711 36.5676 226.115 37.627 230.496 37.627C234.935 37.627 238.35 36.575 240.738 34.4784C243.129 32.3855 244.323 29.3003 244.323 25.2372V9.43896H237.43V24.9584H237.43Z" fill="white"/>
<path d="M28.1874 9.43009V27.9514H9.77087V46.4727L0.562622 37.2121V18.6908H18.9791V0.169434L28.1874 9.43009Z" fill="url(#paint0_linear_16_498)"/>
<path d="M9.77087 9.43018H0.562622V18.6908H9.77087V9.43018Z" fill="url(#paint1_linear_16_498)"/>
<path d="M28.1874 27.9512H18.9791V37.2118H28.1874V27.9512Z" fill="url(#paint2_linear_16_498)"/>
</g>
<defs>
<linearGradient id="paint0_linear_16_498" x1="-4.67432" y1="42.4788" x2="37.4981" y2="0.545136" gradientUnits="userSpaceOnUse">
<stop offset="0.0557" stop-color="#5400FF"/>
<stop offset="0.6123" stop-color="#00CFFF"/>
</linearGradient>
<linearGradient id="paint1_linear_16_498" x1="5.16674" y1="1.58831" x2="5.16674" y2="26.876" gradientUnits="userSpaceOnUse">
<stop offset="0.2873" stop-color="#5400FF"/>
<stop offset="0.399" stop-color="#3C3CFF"/>
<stop offset="0.5281" stop-color="#227BFF"/>
<stop offset="0.6377" stop-color="#10A8FF"/>
<stop offset="0.7217" stop-color="#04C4FF"/>
<stop offset="0.7703" stop-color="#00CFFF"/>
</linearGradient>
<linearGradient id="paint2_linear_16_498" x1="23.5832" y1="20.1093" x2="23.5832" y2="45.397" gradientUnits="userSpaceOnUse">
<stop offset="0.2873" stop-color="#5400FF"/>
<stop offset="0.399" stop-color="#3C3CFF"/>
<stop offset="0.5281" stop-color="#227BFF"/>
<stop offset="0.6377" stop-color="#10A8FF"/>
<stop offset="0.7217" stop-color="#04C4FF"/>
<stop offset="0.7703" stop-color="#00CFFF"/>
</linearGradient>
<clipPath id="clip0_16_498">
<rect width="269.767" height="46.3033" fill="white" transform="translate(0.562622 0.169434)"/>
</clipPath>
</defs>
</svg>
