<svg width="131" height="117" viewBox="0 0 131 117" fill="none" xmlns="http://www.w3.org/2000/svg">
<g id="Group 53">
<g id="Group 49">
<path id="Rectangle 7" d="M56.0585 62.5156C56.8834 60.0792 59.1694 58.4397 61.7417 58.4397H89.0641C93.1713 58.4397 96.0643 62.4735 94.7472 66.3638L79.0199 112.817C78.195 115.253 75.909 116.893 73.3368 116.893H46.0144C41.9071 116.893 39.0141 112.859 40.3312 108.969L56.0585 62.5156Z" fill="#FE391F" fill-opacity="0.8"/>
<g id="Rectangle 5">
<path d="M30.0308 7.63206C31.4004 3.56269 35.2148 0.821777 39.5085 0.821777L86.0039 0.821777C92.8417 0.821777 97.6626 7.53091 95.4816 14.0115L70.1744 89.2069C68.8049 93.2763 64.9904 96.0172 60.6968 96.0172H14.2013C7.36358 96.0172 2.54264 89.3081 4.72369 82.8275L30.0308 7.63206Z" fill="#86795B"/>
<path d="M30.5047 7.79154C31.8058 3.92564 35.4295 1.32178 39.5085 1.32178H86.0039C92.4998 1.32178 97.0797 7.69546 95.0077 13.852L69.7005 89.0474C68.3995 92.9133 64.7758 95.5172 60.6968 95.5172H14.2013C7.70547 95.5172 3.12557 89.1435 5.19757 82.987L30.5047 7.79154Z" stroke="#86795B" stroke-opacity="0.6"/>
</g>
<g id="Rectangle 8">
<path d="M108.157 28.197C109.006 25.8026 111.271 24.2026 113.812 24.2027L122.148 24.2027C126.291 24.2027 129.188 28.3031 127.803 32.2084L119.916 54.4453C119.066 56.8396 116.801 58.4396 114.261 58.4396L105.924 58.4395C101.781 58.4395 98.8845 54.3391 100.27 50.4339L108.157 28.197Z" fill="#E2E2E2"/>
<path d="M108.628 28.3641C109.407 26.1693 111.483 24.7026 113.812 24.7027L122.148 24.7027C125.946 24.7027 128.601 28.4614 127.331 32.0412L119.444 54.2781C118.666 56.4729 116.589 57.9396 114.261 57.9396L105.924 57.9395C102.126 57.9395 99.4712 54.1808 100.741 50.601L108.628 28.3641Z" stroke="#86795B" stroke-opacity="0.6"/>
</g>
</g>
</g>
</svg>
