<svg width="135" height="21" viewBox="0 0 135 21" fill="none" xmlns="http://www.w3.org/2000/svg">
<g id="Layer_1" clip-path="url(#clip0_539_85)">
<path id="Vector" d="M21.3091 6.93253C21.3091 1.08839 16.7588 0.167362 11.9234 0.167362L7.37305 0.030304L0.657227 20.2353H7.60331V13.9581H10.7693L14.2533 20.2353H22.1999L17.7072 13.0371C19.8672 12.0859 21.3063 10.274 21.3063 6.93253H21.3091ZM11.6054 8.74717H7.60331V5.34814H11.6054C12.4414 5.34814 14.1382 5.26316 14.1382 6.99009C14.1382 8.83214 12.4113 8.74717 11.6054 8.74717Z" fill="#FF3920"/>
<path id="Vector_2" d="M31.2128 5.69598C25.9717 5.69598 22.2876 8.8346 22.2876 13.2122C22.2876 17.5898 26.0594 20.5832 31.8761 20.5832C34.0636 20.5832 36.484 20.1802 38.9319 19.4017L36.7718 15.3997C35.5054 15.8903 33.2604 16.2933 31.8761 16.2933C30.1492 16.2933 29.0555 15.8602 28.6224 15.0543H39.7378C39.8255 14.2758 39.8529 13.8728 39.8529 13.6152C39.8529 8.51937 36.3963 5.69598 31.2155 5.69598H31.2128ZM28.6498 11.1372C28.9952 10.2737 30.0889 9.61035 31.3279 9.61035C32.3942 9.61035 33.4304 10.1284 33.6305 11.1372H28.6498Z" fill="#FF3920"/>
<path id="Vector_3" d="M49.8993 5.69598C47.1362 5.69598 44.3704 6.07152 41.1468 7.68332L44.3704 11.0796C46.1274 10.1284 47.7392 9.72548 49.4387 9.72548C51.1383 9.72548 51.5412 10.3888 51.5988 11.2523H46.8182C43.0162 11.2523 40.9165 12.8641 40.9165 15.6875C40.9165 18.8535 43.3644 20.5832 47.9722 20.5832C49.7869 20.5832 51.5138 20.1501 52.7528 18.7685L53.301 20.2378H58.1666V11.4853C58.1666 7.56819 55.4611 5.69873 49.902 5.69873L49.8993 5.69598ZM49.1208 16.8689C48.2272 16.8689 47.4514 16.5811 47.4514 15.8602C47.4514 15.3119 47.9695 14.9666 48.8905 14.9666H51.5686C51.3658 15.8876 50.5599 16.8662 49.1208 16.8662V16.8689Z" fill="#FF3920"/>
<path id="Vector_4" d="M66.0778 14.7665V0.167084H60.0884V16.2631C60.0884 18.9988 61.5275 20.6106 64.6963 20.6106C65.7324 20.6106 67.0564 20.3803 67.9199 20.0925V15.5422C67.6019 15.5696 67.1715 15.6272 66.9111 15.6272C66.4506 15.6272 66.0751 15.3092 66.0751 14.7637L66.0778 14.7665Z" fill="#FF3920"/>
<path id="Vector_5" d="M75.5509 6.04138H69.5615V20.2378H75.5509V6.04138Z" fill="#FF3920"/>
<path id="Vector_6" d="M75.7537 0.167084H69.3613V4.22673H75.7537V0.167084Z" fill="#FF3920"/>
<path id="Vector_7" d="M85.8305 14.4211V10.1586H90.4959V6.04136H85.8305V0.68515L79.8986 3.30569V6.04136H77.0479V10.1586H79.8986V15.2544C79.8986 18.6808 82.3465 20.5804 86.694 20.5804C88.2784 20.5804 89.2844 20.4077 90.5234 20.0898V15.9726C89.6873 16.1727 88.7964 16.2905 88.1057 16.2905C86.6364 16.2905 85.8305 15.7423 85.8305 14.4183V14.4211Z" fill="#FF3920"/>
<path id="Vector_8" d="M98.7849 0.167084H92.3926V4.22673H98.7849V0.167084Z" fill="#FF3920"/>
<path id="Vector_9" d="M98.5851 6.04138H92.5957V20.2378H98.5851V6.04138Z" fill="#FF3920"/>
<path id="Vector_10" d="M109.122 5.69598C103.881 5.69598 100.197 8.8346 100.197 13.2122C100.197 17.5898 103.969 20.5832 109.785 20.5832C111.973 20.5832 114.393 20.1802 116.841 19.4017L114.681 15.3997C113.415 15.8903 111.17 16.2933 109.785 16.2933C108.058 16.2933 106.965 15.8602 106.532 15.0543H117.647C117.735 14.2758 117.762 13.8728 117.762 13.6152C117.762 8.51937 114.305 5.69598 109.125 5.69598H109.122ZM106.559 11.1372C106.904 10.2737 107.998 9.61035 109.237 9.61035C110.303 9.61035 111.34 10.1284 111.54 11.1372H106.559Z" fill="#FF3920"/>
<path id="Vector_11" d="M124.812 10.0435C124.812 9.6405 125.56 9.58294 126.281 9.58294C128.066 9.58294 129.39 9.90091 131.177 10.3888L133.94 7.13509C131.35 6.12634 129.16 5.69598 126.684 5.69598C122.164 5.69598 119.226 7.65317 119.226 10.9645C119.226 17.5295 128.641 14.2456 128.641 15.9452C128.641 16.5208 128.381 16.6359 127.145 16.6359C125.188 16.6359 123.343 16.1754 121.588 15.1667L118.189 18.1326C121.068 19.9472 123.373 20.5804 127.115 20.5804C131.75 20.5804 134.543 18.5931 134.543 15.3119C134.631 8.11368 124.812 11.6251 124.812 10.0435Z" fill="#FF3920"/>
</g>
<defs>
<clipPath id="clip0_539_85">
<rect width="133.889" height="20.4435" fill="white" transform="translate(0.657227 0.167084)"/>
</clipPath>
</defs>
</svg>
