<svg width="115" height="54" viewBox="0 0 115 54" fill="none" xmlns="http://www.w3.org/2000/svg">
<g id="Layer_1" clip-path="url(#clip0_539_63)">
<g id="Group">
<path id="Vector" d="M14.1625 16.786C10.3561 16.786 8.31157 14.6515 8.31157 11.4484C8.31157 8.2453 10.3012 6.19596 14.0198 6.19596C16.6433 6.19596 18.3448 7.14921 19.2669 9.16832L25.9823 7.09152C24.0805 3.19613 20.0737 0.800659 14.0198 0.800659C6.03378 0.800659 1.1626 5.15756 1.1626 11.5061C1.1626 17.8547 6.14904 22.1841 14.1625 22.1841C20.2741 22.1841 24.3659 19.7886 26.0097 15.635L19.2642 13.6434C18.4272 15.7504 17.0166 16.7888 14.1625 16.7888V16.786Z" fill="#FE391F"/>
<path id="Vector_2" d="M33.4467 8.56396V7.32227H27.3652V21.5495H33.389V15.0856C33.389 13.2093 34.226 12.1434 36.2431 12.1434C36.9649 12.1434 38.0022 12.4044 38.5484 12.7203L41.4601 8.04476C40.077 7.26458 39.0094 6.97614 37.3656 6.97614C35.8095 6.97614 34.3962 7.61072 33.4439 8.56396H33.4467Z" fill="#FE391F"/>
<path id="Vector_3" d="M51.145 6.97614C48.3787 6.97614 45.6097 7.35249 42.3824 8.96778L45.6097 12.3714C47.3688 11.4182 48.9825 11.0144 50.684 11.0144C52.3854 11.0144 52.7889 11.6792 52.8465 12.5445H48.0604C44.254 12.5445 42.1519 14.1598 42.1519 16.9893C42.1519 20.1622 44.6025 21.8956 49.2158 21.8956C50.6181 21.8956 51.9656 21.6347 53.0798 20.882L57.1469 8.49253C55.7802 7.42391 54.0842 6.97888 51.1478 6.97888L51.145 6.97614ZM50.3656 18.1733C49.471 18.1733 48.6943 17.8849 48.6943 17.1624C48.6943 16.613 49.213 16.2668 50.1351 16.2668H52.8163C52.6132 17.1899 51.8064 18.1706 50.3656 18.1706V18.1733Z" fill="#FE391F"/>
</g>
<g id="Group_2">
<path id="Vector_4" d="M49.9412 33.134C49.9412 32.1808 50.2596 31.8346 50.8359 31.8346C51.1515 31.8346 51.5851 31.95 52.1038 32.1231L54.0358 28.0546C53.0396 27.7167 52.2355 27.5299 51.3573 27.4475L44.6611 47.8502H49.9412V37.7519H53.2262V33.6257H49.9412V33.134Z" fill="#FE391F"/>
<path id="Vector_5" d="M62.683 42.0236V37.7519H67.3538V33.6257H62.683V28.2579L56.7442 30.8841V33.6257H53.8901V37.7519H56.7442V42.8587C56.7442 46.2926 59.1949 48.1964 63.5474 48.1964C65.1336 48.1964 66.1408 48.0233 67.3812 47.7046V43.5785C66.5442 43.7818 65.6523 43.8971 64.9607 43.8971C63.4898 43.8971 62.683 43.3477 62.683 42.0209V42.0236Z" fill="#FE391F"/>
<path id="Vector_6" d="M75.4524 33.6257H69.4561V47.853H75.4524V33.6257Z" fill="#FE391F"/>
<path id="Vector_7" d="M75.6527 27.7387H69.2529V31.8072H75.6527V27.7387Z" fill="#FE391F"/>
<path id="Vector_8" d="M88.7104 33.2796C86.5781 33.2796 84.9041 33.8565 83.724 35.0405V33.6257H77.7002V47.853H83.724V41.4467C83.724 39.1666 84.7613 37.87 86.8086 37.87C88.4799 37.87 89.3444 38.7656 89.3444 40.5237V47.853H95.3407V38.1585C95.3407 35.2438 92.7171 33.2823 88.7104 33.2823V33.2796Z" fill="#FE391F"/>
<path id="Vector_9" d="M108.544 45.6004C102.289 44.9932 101.856 45.0812 101.856 44.3312V44.2433C102.835 44.474 103.93 44.5894 105.113 44.5894C109.696 44.5894 112.723 43.0016 112.723 39.1364C112.723 38.2711 112.55 37.5211 112.262 36.8563L114.252 35.5295L111.716 31.7495L108.777 33.884C107.624 33.4802 106.299 33.2769 104.855 33.2769C100.473 33.2769 97.1299 35.1229 97.1299 38.9606C97.1299 40.3452 97.5635 41.4715 98.3127 42.3368C97.4757 43.1444 97.0723 44.0977 97.0723 45.1938C97.0723 46.2899 97.4483 47.1552 98.2826 47.8475L96.6689 48.8282C96.6113 49.1166 96.5234 49.5507 96.5234 49.8391C96.5234 52.5807 100.184 54.457 105.459 54.457C110.734 54.457 114.049 52.4956 114.049 49.3776C114.049 47.2129 112.838 46.0317 108.544 45.5976V45.6004ZM104.91 37.3755C106.063 37.3755 106.784 38.0403 106.784 38.9634C106.784 40.0018 106.005 40.7517 104.998 40.7517C103.903 40.7517 103.154 40.0018 103.154 38.9634C103.154 38.0403 103.845 37.3755 104.913 37.3755H104.91ZM105.689 51.1385C104.219 51.1385 102.287 50.7924 102.287 49.8391C102.287 49.8089 102.287 49.7814 102.317 49.7512L102.577 49.3749L104.106 49.5479C107.912 49.8941 108.055 49.9518 108.055 50.3281C108.055 50.7896 107.479 51.1358 105.692 51.1358L105.689 51.1385Z" fill="#FE391F"/>
</g>
</g>
<defs>
<clipPath id="clip0_539_63">
<rect width="113.758" height="53.1784" fill="white" transform="translate(0.340332 0.800659)"/>
</clipPath>
</defs>
</svg>
