<svg width="191" height="29" viewBox="0 0 191 29" fill="none" xmlns="http://www.w3.org/2000/svg">
<g id="Layer_1" clip-path="url(#clip0_539_97)">
<path id="Vector" d="M7.09368 16.0106C7.09368 17.0436 5.63459 17.2867 4.29709 17.2867C3.61965 17.2867 2.56876 17.3098 1.76973 17.0523L0.0327148 22.3043C1.3789 22.5792 2.88721 22.7267 4.56922 22.7267C11.8068 22.7267 14.725 19.6566 14.725 15.1599C14.725 9.86159 8.89439 8.55945 4.80951 7.93732L2.78299 14.014C6.64495 14.6014 7.09079 15.238 7.09079 16.0106H7.09368Z" fill="#FF3920"/>
<path id="Vector_2" d="M8.79612 8.10803L13.8132 4.12637C12.137 2.55512 9.51987 1.32821 7.27044 0.703186L5.38867 6.20112C6.47431 6.66121 8.05499 7.28623 8.79901 8.10803H8.79612Z" fill="#FF3920"/>
<path id="Vector_3" d="M22.7241 7.07211H16.3984V22.0583H22.7241V7.07211Z" fill="#FF3920"/>
<path id="Vector_4" d="M22.9353 0.873901H16.1841V5.15939H22.9353V0.873901Z" fill="#FF3920"/>
<path id="Vector_5" d="M36.7096 6.70752C34.4601 6.70752 32.6942 7.31519 31.4493 8.56235V7.07212H25.0947V22.0583H31.4493V15.3103C31.4493 12.9086 32.5436 11.5428 34.7033 11.5428C36.4664 11.5428 37.3783 12.4861 37.3783 14.3381V22.0583H43.704V11.8466C43.704 8.77648 40.9363 6.71041 36.7096 6.71041V6.70752Z" fill="#FF3920"/>
<path id="Vector_6" d="M55.1076 11.5428C56.9633 11.5428 58.0576 12.4543 58.5729 13.4265L64.3804 11.4212C62.6173 8.29032 59.8786 6.71039 55.1047 6.71039C49.0223 6.71039 45.2529 9.87025 45.2529 14.6129C45.2529 19.3556 49.0223 22.4258 55.1365 22.4258C59.5457 22.4258 62.8315 20.7533 64.198 17.6831L58.5121 15.6778C58.1474 16.8642 56.8099 17.5934 55.0758 17.5934C53.0695 17.5934 51.5496 16.4996 51.5496 14.6158C51.5496 12.7321 53.0087 11.5457 55.1076 11.5457V11.5428Z" fill="#FF3920"/>
<path id="Vector_7" d="M74.7504 6.70752C69.2151 6.70752 65.3242 10.0207 65.3242 14.6419C65.3242 19.2631 69.3078 22.4229 75.451 22.4229C77.7613 22.4229 80.3176 21.9976 82.9028 21.1758L80.6215 16.951C79.284 17.469 76.913 17.8944 75.451 17.8944C73.6272 17.8944 72.472 17.4372 72.0146 16.5864H83.754C83.8466 15.7646 83.8755 15.3393 83.8755 15.0673C83.8755 9.68798 80.2249 6.70752 74.7533 6.70752H74.7504ZM72.0436 12.4514C72.4083 11.5399 73.5635 10.8396 74.872 10.8396C75.9982 10.8396 77.0925 11.3865 77.3038 12.4514H72.0436Z" fill="#FF3920"/>
<path id="Vector_8" d="M103.301 0.873901L94.0571 22.0583H102.238L103.243 19.263H111.21L112.183 22.0583H120.425L111.21 0.873901H103.304H103.301ZM105.217 13.7622L107.256 8.07908L109.262 13.7622H105.217Z" fill="#FF3920"/>
<path id="Vector_9" d="M127.113 16.2826V0.873901H120.787V17.8654C120.787 20.7533 122.307 22.4547 125.654 22.4547C126.748 22.4547 128.146 22.2117 129.058 21.9078V17.1044C128.722 17.1333 128.268 17.1941 127.993 17.1941C127.506 17.1941 127.11 16.8584 127.11 16.2826H127.113Z" fill="#FF3920"/>
<path id="Vector_10" d="M141.281 6.70751C139.73 6.70751 138.331 7.13288 137.115 7.95468V7.07211H130.761V28.2565H137.115V20.8401C138.059 21.7226 140.005 22.42 141.585 22.42C146.938 22.42 150.375 19.2891 150.375 14.639C150.375 9.98891 146.877 6.70462 141.281 6.70462V6.70751ZM140.581 17.6802C138.482 17.6802 137.115 16.4331 137.115 14.6101C137.115 12.7871 138.485 11.5399 140.581 11.5399C142.677 11.5399 144.046 12.816 144.046 14.6101C144.046 16.4041 142.648 17.6802 140.581 17.6802Z" fill="#FF3920"/>
<path id="Vector_11" d="M163.752 6.70749C161.503 6.70749 159.737 7.31516 158.492 8.56232V0.873901H152.137V22.0583H158.492V15.3103C158.492 12.9086 159.586 11.5428 161.746 11.5428C163.509 11.5428 164.421 12.4861 164.421 14.338V22.0583H170.746V11.8466C170.746 8.77645 167.979 6.71039 163.752 6.71039V6.70749Z" fill="#FF3920"/>
<path id="Vector_12" d="M181.814 6.70752C178.896 6.70752 175.975 7.10395 172.57 8.80541L175.975 12.3906C177.831 11.3865 179.533 10.9612 181.328 10.9612C183.123 10.9612 183.548 11.6614 183.609 12.5729H178.56C174.545 12.5729 172.327 14.2744 172.327 17.2549C172.327 20.597 174.912 22.4229 179.779 22.4229C181.695 22.4229 183.519 21.9657 184.828 20.5073L185.407 22.0583H190.546V12.8189C190.546 8.68388 187.688 6.71041 181.817 6.71041L181.814 6.70752ZM180.992 18.502C180.048 18.502 179.229 18.1982 179.229 17.4372C179.229 16.8584 179.776 16.4938 180.749 16.4938H183.577C183.363 17.4661 182.512 18.4991 180.992 18.4991V18.502Z" fill="#FF3920"/>
</g>
<defs>
<clipPath id="clip0_539_97">
<rect width="190.51" height="27.4115" fill="white" transform="translate(0.0327148 0.84787)"/>
</clipPath>
</defs>
</svg>
