<svg width="98" height="27" viewBox="0 0 98 27" fill="none" xmlns="http://www.w3.org/2000/svg">
<g id="Layer_1" clip-path="url(#clip0_539_75)">
<path id="Vector" d="M8.65118 0L6.99005 0.137058L5.2083 5.81673H7.73016C9.1117 5.81673 12.6834 5.73175 12.6834 9.9915C12.6834 14.7995 8.27839 14.254 7.18467 14.254H4.62169V7.47238L0.54834 19.9309L8.56347 20.068C15.8769 20.068 19.9091 16.584 19.9091 10.1916C19.9091 3.79924 15.7042 0 8.65118 0Z" fill="#FE391F"/>
<path id="Vector_2" d="M27.4225 5.8743H21.4331V20.0707H27.4225V5.8743Z" fill="#FE391F"/>
<path id="Vector_3" d="M27.6253 0H21.2329V4.05965H27.6253V0Z" fill="#FE391F"/>
<path id="Vector_4" d="M43.9216 4.00207L40.9858 6.13195C39.8345 5.729 38.5106 5.52615 37.0687 5.52615C32.6911 5.52615 29.3524 7.3682 29.3524 11.1976C29.3524 12.5791 29.7855 13.703 30.5338 14.5665C29.6978 15.3724 29.2948 16.3235 29.2948 17.4173C29.2948 18.511 29.6703 19.3744 30.5037 20.0652L28.8919 21.0438C28.8343 21.3316 28.7466 21.7647 28.7466 22.0526C28.7466 24.7882 32.4033 26.6604 37.6718 26.6604C42.9403 26.6604 46.2516 24.7032 46.2516 21.592C46.2516 19.432 45.0427 18.2533 40.7528 17.8202C34.5057 17.2144 34.0726 17.3021 34.0726 16.5538V16.4661C35.0512 16.6963 36.1449 16.8115 37.3264 16.8115C41.9041 16.8115 44.9276 15.2271 44.9276 11.3703C44.9276 10.5068 44.7549 9.75849 44.4671 9.09513L46.4544 7.77115L43.9216 3.99933V4.00207ZM34.5359 21.9703L34.7963 21.5948L36.3231 21.7675C40.1251 22.1129 40.2676 22.1704 40.2676 22.546C40.2676 23.0065 39.692 23.3519 37.9075 23.3519C36.4383 23.3519 34.5085 23.0065 34.5085 22.0553C34.5085 22.0251 34.5085 21.9977 34.5386 21.9676L34.5359 21.9703ZM37.214 12.9876C36.1203 12.9876 35.3719 12.2392 35.3719 11.2031C35.3719 10.282 36.0627 9.61869 37.129 9.61869C38.2803 9.61869 39.0012 10.282 39.0012 11.2031C39.0012 12.2392 38.2227 12.9876 37.2167 12.9876H37.214Z" fill="#FE391F"/>
<path id="Vector_5" d="M53.8527 5.8743H47.8633V20.0707H53.8527V5.8743Z" fill="#FE391F"/>
<path id="Vector_6" d="M54.0554 0H47.6631V4.05965H54.0554V0Z" fill="#FE391F"/>
<path id="Vector_7" d="M64.1318 14.254V9.99149H68.7972V5.87428H64.1318V0.518066L58.1999 3.13861V5.87428H55.3491V9.99149H58.1999V15.0873C58.1999 18.5137 60.6478 20.4134 64.9952 20.4134C66.5796 20.4134 67.5856 20.2407 68.8246 19.9227V15.8055C67.9886 16.0083 67.0977 16.1234 66.4069 16.1234C64.9377 16.1234 64.1318 15.5752 64.1318 14.2512V14.254Z" fill="#FE391F"/>
<path id="Vector_8" d="M79.2469 5.5289C76.4838 5.5289 73.718 5.90444 70.4944 7.51624L73.718 10.9125C75.4751 9.96134 77.0869 9.55839 78.7864 9.55839C80.4859 9.55839 80.8889 10.2218 80.9464 11.0852H76.1659C72.3639 11.0852 70.2642 12.697 70.2642 15.5204C70.2642 18.6864 72.712 20.4161 77.3199 20.4161C79.1345 20.4161 80.8615 19.983 82.1005 18.6015L82.6487 20.0707H87.5142V11.3182C87.5142 7.40111 84.8087 5.53164 79.2497 5.53164L79.2469 5.5289ZM78.4684 16.7018C77.5748 16.7018 76.7991 16.414 76.7991 15.6931C76.7991 15.1449 77.3172 14.7995 78.2382 14.7995H80.9163C80.7134 15.7205 79.9075 16.6991 78.4684 16.6991V16.7018Z" fill="#FE391F"/>
<path id="Vector_9" d="M96.261 15.4628C95.8005 15.4628 95.425 15.1449 95.425 14.5994V0H89.4355V16.096C89.4355 18.8317 90.8747 20.4435 94.0434 20.4435C95.0796 20.4435 96.4036 20.2133 97.267 19.9254V15.3751C96.949 15.4025 96.5187 15.4601 96.2583 15.4601L96.261 15.4628Z" fill="#FE391F"/>
</g>
<defs>
<clipPath id="clip0_539_75">
<rect width="97.2698" height="26.6632" fill="white"/>
</clipPath>
</defs>
</svg>
